<svg width="20" height="20" viewBox="0 0 20 20" fill="none" xmlns="http://www.w3.org/2000/svg">
<path fill-rule="evenodd" clip-rule="evenodd" d="M5.33037 0.000427246H14.6694C18.0704 0.000427246 19.9904 1.92943 20.0004 5.33043V14.6704C20.0004 18.0704 18.0704 20.0004 14.6694 20.0004H5.33037C1.92937 20.0004 0.000366211 18.0704 0.000366211 14.6704V5.33043C0.000366211 1.92943 1.92937 0.000427246 5.33037 0.000427246ZM10.0494 15.8604C10.4804 15.8604 10.8394 15.5404 10.8794 15.1104V4.92043C10.9194 4.61043 10.7704 4.29943 10.5004 4.13043C10.2194 3.96043 9.87937 3.96043 9.61037 4.13043C9.33937 4.29943 9.19037 4.61043 9.21937 4.92043V15.1104C9.27037 15.5404 9.62937 15.8604 10.0494 15.8604ZM14.6504 15.8604C15.0704 15.8604 15.4294 15.5404 15.4804 15.1104V11.8304C15.5094 11.5094 15.3604 11.2104 15.0894 11.0404C14.8204 10.8704 14.4804 10.8704 14.2004 11.0404C13.9294 11.2104 13.7804 11.5094 13.8204 11.8304V15.1104C13.8604 15.5404 14.2194 15.8604 14.6504 15.8604ZM6.21937 15.1104C6.17937 15.5404 5.82037 15.8604 5.38937 15.8604C4.95937 15.8604 4.59937 15.5404 4.56037 15.1104V8.20043C4.53037 7.88943 4.67937 7.58043 4.95037 7.41043C5.21937 7.24043 5.56037 7.24043 5.83037 7.41043C6.09937 7.58043 6.25037 7.88943 6.21937 8.20043V15.1104Z" fill="#C7CCD9"/>
</svg>
