<svg width="18" height="16" viewBox="0 0 18 16" fill="none" xmlns="http://www.w3.org/2000/svg">
<path d="M9 3.83333V0.5H0.666666V15.5H17.3333V3.83333H9ZM4 13.8333H2.33333V12.1667H4V13.8333ZM4 10.5H2.33333V8.83333H4V10.5ZM4 7.16667H2.33333V5.5H4V7.16667ZM4 3.83333H2.33333V2.16667H4V3.83333ZM7.33333 13.8333H5.66667V12.1667H7.33333V13.8333ZM7.33333 10.5H5.66667V8.83333H7.33333V10.5ZM7.33333 7.16667H5.66667V5.5H7.33333V7.16667ZM7.33333 3.83333H5.66667V2.16667H7.33333V3.83333ZM15.6667 13.8333H9V12.1667H10.6667V10.5H9V8.83333H10.6667V7.16667H9V5.5H15.6667V13.8333ZM14 7.16667H12.3333V8.83333H14V7.16667ZM14 10.5H12.3333V12.1667H14V10.5Z" fill="#A0A2A7"/>
</svg>
