<svg width="46" height="38" viewBox="0 0 46 38" fill="none" xmlns="http://www.w3.org/2000/svg">
<path d="M4.16667 5.45833V2.31875C4.17048 1.77162 4.38937 1.24795 4.77607 0.86087C5.16276 0.473787 5.68621 0.254364 6.23333 0.25H43.7667C44.9083 0.25 45.8333 1.17708 45.8333 2.31875V35.6812C45.8295 36.2284 45.6106 36.752 45.2239 37.1391C44.8372 37.5262 44.3138 37.7456 43.7667 37.75H6.23333C5.68503 37.7494 5.15937 37.5312 4.77185 37.1433C4.38434 36.7554 4.16667 36.2296 4.16667 35.6812V33.5833H41.6667V9.20833L25 24.2083L4.16667 5.45833ZM0 14.8333H10.4167V19H0V14.8333ZM0 25.25H16.6667V29.4167H0V25.25Z" fill="#1BB462"/>
</svg>
