<svg width="10" height="15" viewBox="0 0 10 15" fill="none" xmlns="http://www.w3.org/2000/svg">
<path d="M9.58334 4.91659C9.58334 2.38325 7.53334 0.333252 5.00001 0.333252C2.46667 0.333252 0.416672 2.38325 0.416672 4.91659C0.416672 7.16659 2.03334 9.02492 4.16667 9.41658V11.1666H2.50001V12.8333H4.16667V14.4999H5.83334V12.8333H7.50001V11.1666H5.83334V9.41658C7.96667 9.02492 9.58334 7.16659 9.58334 4.91659ZM2.08334 4.91659C2.08334 3.30825 3.39167 1.99992 5.00001 1.99992C6.60834 1.99992 7.91667 3.30825 7.91667 4.91659C7.91667 6.52492 6.60834 7.83325 5.00001 7.83325C3.39167 7.83325 2.08334 6.52492 2.08334 4.91659Z" fill="#A0A2A7"/>
</svg>
