<svg width="24" height="24" viewBox="0 0 24 24" fill="none" xmlns="http://www.w3.org/2000/svg">
<path d="M21.8055 10.0413H21V9.99976H12V13.9998H17.6515C16.827 16.3283 14.6115 17.9998 12 17.9998C8.68653 17.9998 6.00003 15.3133 6.00003 11.9998C6.00003 8.68626 8.68653 5.99976 12 5.99976C13.5295 5.99976 14.921 6.57676 15.9805 7.51926L18.809 4.69076C17.023 3.02626 14.634 1.99976 12 1.99976C6.47753 1.99976 2.00003 6.47726 2.00003 11.9998C2.00003 17.5223 6.47753 21.9998 12 21.9998C17.5225 21.9998 22 17.5223 22 11.9998C22 11.3293 21.931 10.6748 21.8055 10.0413Z" fill="#FFC107"/>
<path d="M3.15302 7.34526L6.43851 9.75476C7.32752 7.55376 9.48052 5.99976 12 5.99976C13.5295 5.99976 14.921 6.57676 15.9805 7.51926L18.809 4.69076C17.023 3.02626 14.634 1.99976 12 1.99976C8.15902 1.99976 4.82802 4.16826 3.15302 7.34526Z" fill="#FF3D00"/>
<path d="M12 21.9999C14.583 21.9999 16.93 21.0114 18.7045 19.4039L15.6095 16.7849C14.5718 17.5741 13.3037 18.0009 12 17.9999C9.399 17.9999 7.1905 16.3414 6.3585 14.0269L3.0975 16.5394C4.7525 19.7779 8.1135 21.9999 12 21.9999Z" fill="#4CAF50"/>
<path d="M21.8055 10.0417H21V10.0002H12V14.0002H17.6515C17.2571 15.1085 16.5467 16.0768 15.608 16.7857L15.6095 16.7847L18.7045 19.4037C18.4855 19.6027 22 17.0002 22 12.0002C22 11.3297 21.931 10.6752 21.8055 10.0417Z" fill="#1976D2"/>
</svg>
