<svg width="360" height="240" viewBox="0 0 360 240" fill="none" xmlns="http://www.w3.org/2000/svg">
<path d="M36.9648 68.5489H61.7856V98.6881H68.1696V81.6241H99.7297V108.643H103.906V45.2401H131.333V62.6449H145.392V84.2929H149.65V70.6801H174.581V111.317H181.877V78.2785H204.682V53.1889H220.186V38.8945H238.123V102.279H244.152V75.8305H273.696V113.688H277.786V82.7857H307.747V54.9457H323.035V161.899H36.9648V68.5489Z" fill="#EBEBEB"/>
<path d="M44.208 72.3406H40.008V78.1006H44.208V72.3406Z" fill="white"/>
<path d="M51.4896 72.3406H47.2896V78.1006H51.4896V72.3406Z" fill="white"/>
<path d="M58.7664 72.3406H54.5664V78.1006H58.7664V72.3406Z" fill="white"/>
<path d="M44.208 81.0095H40.008V86.7695H44.208V81.0095Z" fill="white"/>
<path d="M51.4896 81.0095H47.2896V86.7695H51.4896V81.0095Z" fill="white"/>
<path d="M58.7664 81.0095H54.5664V86.7695H58.7664V81.0095Z" fill="white"/>
<path d="M44.208 89.6785H40.008V95.4385H44.208V89.6785Z" fill="white"/>
<path d="M51.4896 89.6785H47.2896V95.4385H51.4896V89.6785Z" fill="white"/>
<path d="M58.7664 89.6785H54.5664V95.4385H58.7664V89.6785Z" fill="white"/>
<path d="M44.208 98.3472H40.008V104.107H44.208V98.3472Z" fill="white"/>
<path d="M51.4896 98.3472H47.2896V104.107H51.4896V98.3472Z" fill="white"/>
<path d="M58.7664 98.3472H54.5664V104.107H58.7664V98.3472Z" fill="white"/>
<path d="M189.581 82.3967H185.381V87.2015H189.581V82.3967Z" fill="white"/>
<path d="M196.858 82.3967H192.658V87.2015H196.858V82.3967Z" fill="white"/>
<path d="M204.134 82.3967H199.934V87.2015H204.134V82.3967Z" fill="white"/>
<path d="M189.581 89.6304H185.381V94.4352H189.581V89.6304Z" fill="white"/>
<path d="M196.858 89.6304H192.658V94.4352H196.858V89.6304Z" fill="white"/>
<path d="M204.134 89.6304H199.934V94.4352H204.134V89.6304Z" fill="white"/>
<path d="M189.581 96.864H185.381V101.669H189.581V96.864Z" fill="white"/>
<path d="M196.858 96.864H192.658V101.669H196.858V96.864Z" fill="white"/>
<path d="M204.134 96.864H199.934V101.669H204.134V96.864Z" fill="white"/>
<path d="M189.581 104.093H185.381V108.898H189.581V104.093Z" fill="white"/>
<path d="M196.858 104.093H192.658V108.898H196.858V104.093Z" fill="white"/>
<path d="M204.134 104.093H199.934V108.898H204.134V104.093Z" fill="white"/>
<path d="M189.581 111.509H185.381V116.314H189.581V111.509Z" fill="white"/>
<path d="M196.858 111.509H192.658V116.314H196.858V111.509Z" fill="white"/>
<path d="M204.134 111.509H199.934V116.314H204.134V111.509Z" fill="white"/>
<path d="M189.581 118.92H185.381V123.725H189.581V118.92Z" fill="white"/>
<path d="M196.858 118.92H192.658V123.725H196.858V118.92Z" fill="white"/>
<path d="M204.134 118.92H199.934V123.725H204.134V118.92Z" fill="white"/>
<path d="M189.581 126.331H185.381V131.136H189.581V126.331Z" fill="white"/>
<path d="M196.858 126.331H192.658V131.136H196.858V126.331Z" fill="white"/>
<path d="M204.134 126.331H199.934V131.136H204.134V126.331Z" fill="white"/>
<path d="M189.581 133.742H185.381V138.547H189.581V133.742Z" fill="white"/>
<path d="M196.858 133.742H192.658V138.547H196.858V133.742Z" fill="white"/>
<path d="M204.134 133.742H199.934V138.547H204.134V133.742Z" fill="white"/>
<path d="M95.928 85.3201H71.7552V88.9249H95.928V85.3201Z" fill="white"/>
<path d="M95.928 92.3135H71.7552V95.9183H95.928V92.3135Z" fill="white"/>
<path d="M95.928 99.3074H71.7552V102.912H95.928V99.3074Z" fill="white"/>
<path d="M95.928 106.296H71.7552V109.901H95.928V106.296Z" fill="white"/>
<path d="M95.928 113.29H71.7552V116.894H95.928V113.29Z" fill="white"/>
<path d="M95.928 120.283H71.7552V123.888H95.928V120.283Z" fill="white"/>
<path d="M95.928 127.277H71.7552V130.882H95.928V127.277Z" fill="white"/>
<path d="M95.928 134.266H71.7552V137.87H95.928V134.266Z" fill="white"/>
<path d="M269.947 79.1904H247.723V82.7952H269.947V79.1904Z" fill="white"/>
<path d="M269.947 86.1838H247.723V89.7886H269.947V86.1838Z" fill="white"/>
<path d="M269.947 93.1729H247.723V96.7776H269.947V93.1729Z" fill="white"/>
<path d="M269.947 100.167H247.723V103.771H269.947V100.167Z" fill="white"/>
<path d="M269.947 107.16H247.723V110.765H269.947V107.16Z" fill="white"/>
<path d="M269.947 114.149H247.723V117.754H269.947V114.149Z" fill="white"/>
<path d="M269.947 121.142H247.723V124.747H269.947V121.142Z" fill="white"/>
<path d="M269.947 128.136H247.723V131.741H269.947V128.136Z" fill="white"/>
<path d="M269.947 134.779H247.723V138.384H269.947V134.779Z" fill="white"/>
<path d="M269.947 141.422H247.723V145.027H269.947V141.422Z" fill="white"/>
<path d="M269.947 148.066H247.723V151.67H269.947V148.066Z" fill="white"/>
<path d="M269.947 154.714H247.723V158.318H269.947V154.714Z" fill="white"/>
<path d="M305.885 87.6335H282.408V91.2383H305.885V87.6335Z" fill="white"/>
<path d="M305.885 94.6272H282.408V98.232H305.885V94.6272Z" fill="white"/>
<path d="M305.885 101.621H282.408V105.225H305.885V101.621Z" fill="white"/>
<path d="M305.885 108.615H282.408V112.219H305.885V108.615Z" fill="white"/>
<path d="M305.885 115.603H282.408V119.208H305.885V115.603Z" fill="white"/>
<path d="M305.885 122.597H282.408V126.202H305.885V122.597Z" fill="white"/>
<path d="M305.885 129.59H282.408V133.195H305.885V129.59Z" fill="white"/>
<path d="M305.885 136.579H282.408V140.184H305.885V136.579Z" fill="white"/>
<path d="M305.885 142.839H282.408V146.443H305.885V142.839Z" fill="white"/>
<path d="M305.885 149.098H282.408V152.702H305.885V149.098Z" fill="white"/>
<path d="M305.885 155.357H282.408V158.962H305.885V155.357Z" fill="white"/>
<path d="M164.41 73.9392H156.946V77.4192H164.41V73.9392Z" fill="white"/>
<path d="M164.41 80.6929H156.946V84.1729H164.41V80.6929Z" fill="white"/>
<path d="M164.41 87.4463H156.946V90.9263H164.41V87.4463Z" fill="white"/>
<path d="M164.41 94.2002H156.946V97.6802H164.41V94.2002Z" fill="white"/>
<path d="M164.41 100.949H156.946V104.429H164.41V100.949Z" fill="white"/>
<path d="M164.41 107.703H156.946V111.183H164.41V107.703Z" fill="white"/>
<path d="M164.41 114.456H156.946V117.936H164.41V114.456Z" fill="white"/>
<path d="M164.41 121.209H156.946V124.689H164.41V121.209Z" fill="white"/>
<path d="M174.566 73.9392H167.102V77.4192H174.566V73.9392Z" fill="white"/>
<path d="M174.566 80.6929H167.102V84.1729H174.566V80.6929Z" fill="white"/>
<path d="M174.566 87.4463H167.102V90.9263H174.566V87.4463Z" fill="white"/>
<path d="M174.566 94.2002H167.102V97.6802H174.566V94.2002Z" fill="white"/>
<path d="M174.566 100.949H167.102V104.429H174.566V100.949Z" fill="white"/>
<path d="M174.566 107.703H167.102V111.183H174.566V107.703Z" fill="white"/>
<path d="M174.566 114.456H167.102V117.936H174.566V114.456Z" fill="white"/>
<path d="M174.566 121.209H167.102V124.689H174.566V121.209Z" fill="white"/>
<path d="M115.843 48.8879H108.067V54.3743H115.843V48.8879Z" fill="white"/>
<path d="M127.435 48.8879H119.659V54.3743H127.435V48.8879Z" fill="white"/>
<path d="M115.843 56.9519H108.067V62.4383H115.843V56.9519Z" fill="white"/>
<path d="M127.435 56.9519H119.659V62.4383H127.435V56.9519Z" fill="white"/>
<path d="M115.843 65.0112H108.067V70.4976H115.843V65.0112Z" fill="white"/>
<path d="M127.435 65.0112H119.659V70.4976H127.435V65.0112Z" fill="white"/>
<path d="M115.843 73.0752H108.067V78.5616H115.843V73.0752Z" fill="white"/>
<path d="M127.435 73.0752H119.659V78.5616H127.435V73.0752Z" fill="white"/>
<path d="M115.843 81.1394H108.067V86.6258H115.843V81.1394Z" fill="white"/>
<path d="M127.435 81.1394H119.659V86.6258H127.435V81.1394Z" fill="white"/>
<path d="M115.843 89.1985H108.067V94.6849H115.843V89.1985Z" fill="white"/>
<path d="M127.435 89.1985H119.659V94.6849H127.435V89.1985Z" fill="white"/>
<path d="M115.843 97.2625H108.067V102.749H115.843V97.2625Z" fill="white"/>
<path d="M127.435 97.2625H119.659V102.749H127.435V97.2625Z" fill="white"/>
<path d="M115.843 105.322H108.067V110.808H115.843V105.322Z" fill="white"/>
<path d="M127.435 105.322H119.659V110.808H127.435V105.322Z" fill="white"/>
<path d="M141.806 65.0112H134.03V70.4976H141.806V65.0112Z" fill="white"/>
<path d="M141.806 73.0752H134.03V78.5616H141.806V73.0752Z" fill="white"/>
<path d="M141.806 81.1394H134.03V86.6258H141.806V81.1394Z" fill="white"/>
<path d="M141.806 89.1985H134.03V94.6849H141.806V89.1985Z" fill="white"/>
<path d="M141.806 97.2625H134.03V102.749H141.806V97.2625Z" fill="white"/>
<path d="M141.806 105.322H134.03V110.808H141.806V105.322Z" fill="white"/>
<path d="M115.843 113.29H108.067V118.776H115.843V113.29Z" fill="white"/>
<path d="M127.435 113.29H119.659V118.776H127.435V113.29Z" fill="white"/>
<path d="M141.806 113.29H134.03V118.776H141.806V113.29Z" fill="white"/>
<path d="M115.843 121.258H108.067V126.744H115.843V121.258Z" fill="white"/>
<path d="M127.435 121.258H119.659V126.744H127.435V121.258Z" fill="white"/>
<path d="M141.806 121.258H134.03V126.744H141.806V121.258Z" fill="white"/>
<path d="M115.843 129.221H108.067V134.707H115.843V129.221Z" fill="white"/>
<path d="M127.435 129.221H119.659V134.707H127.435V129.221Z" fill="white"/>
<path d="M141.806 129.221H134.03V134.707H141.806V129.221Z" fill="white"/>
<path d="M115.843 137.189H108.067V142.675H115.843V137.189Z" fill="white"/>
<path d="M127.435 137.189H119.659V142.675H127.435V137.189Z" fill="white"/>
<path d="M141.806 137.189H134.03V142.675H141.806V137.189Z" fill="white"/>
<path d="M115.843 145.152H108.067V150.638H115.843V145.152Z" fill="white"/>
<path d="M127.435 145.152H119.659V150.638H127.435V145.152Z" fill="white"/>
<path d="M141.806 145.152H134.03V150.638H141.806V145.152Z" fill="white"/>
<path d="M212.05 56.7214H207.85V61.5262H212.05V56.7214Z" fill="white"/>
<path d="M219.326 56.7214H215.126V61.5262H219.326V56.7214Z" fill="white"/>
<path d="M212.05 63.9553H207.85V68.7601H212.05V63.9553Z" fill="white"/>
<path d="M219.326 63.9553H215.126V68.7601H219.326V63.9553Z" fill="white"/>
<path d="M212.05 71.1887H207.85V75.9935H212.05V71.1887Z" fill="white"/>
<path d="M219.326 71.1887H215.126V75.9935H219.326V71.1887Z" fill="white"/>
<path d="M212.05 78.4226H207.85V83.2274H212.05V78.4226Z" fill="white"/>
<path d="M219.326 78.4226H215.126V83.2274H219.326V78.4226Z" fill="white"/>
<path d="M212.05 85.8335H207.85V90.6383H212.05V85.8335Z" fill="white"/>
<path d="M219.326 85.8335H215.126V90.6383H219.326V85.8335Z" fill="white"/>
<path d="M212.05 93.2449H207.85V98.0497H212.05V93.2449Z" fill="white"/>
<path d="M219.326 93.2449H215.126V98.0497H219.326V93.2449Z" fill="white"/>
<path d="M212.05 100.656H207.85V105.461H212.05V100.656Z" fill="white"/>
<path d="M219.326 100.656H215.126V105.461H219.326V100.656Z" fill="white"/>
<path d="M212.05 108.067H207.85V112.872H212.05V108.067Z" fill="white"/>
<path d="M219.326 108.067H215.126V112.872H219.326V108.067Z" fill="white"/>
<path d="M212.05 115.56H207.85V120.365H212.05V115.56Z" fill="white"/>
<path d="M219.326 115.56H215.126V120.365H219.326V115.56Z" fill="white"/>
<path d="M212.05 123.053H207.85V127.858H212.05V123.053Z" fill="white"/>
<path d="M219.326 123.053H215.126V127.858H219.326V123.053Z" fill="white"/>
<path d="M212.05 130.541H207.85V135.346H212.05V130.541Z" fill="white"/>
<path d="M219.326 130.541H215.126V135.346H219.326V130.541Z" fill="white"/>
<path d="M212.05 138.034H207.85V142.838H212.05V138.034Z" fill="white"/>
<path d="M219.326 138.034H215.126V142.838H219.326V138.034Z" fill="white"/>
<path d="M314.578 57.5042H310.378V63.1682H314.578V57.5042Z" fill="white"/>
<path d="M321.854 57.5042H317.654V63.1682H321.854V57.5042Z" fill="white"/>
<path d="M314.578 66.0239H310.378V71.6879H314.578V66.0239Z" fill="white"/>
<path d="M321.854 66.0239H317.654V71.6879H321.854V66.0239Z" fill="white"/>
<path d="M314.578 74.5488H310.378V80.2128H314.578V74.5488Z" fill="white"/>
<path d="M321.854 74.5488H317.654V80.2128H321.854V74.5488Z" fill="white"/>
<path d="M314.578 83.0688H310.378V88.7328H314.578V83.0688Z" fill="white"/>
<path d="M321.854 83.0688H317.654V88.7328H321.854V83.0688Z" fill="white"/>
<path d="M314.578 91.8H310.378V97.4641H314.578V91.8Z" fill="white"/>
<path d="M321.854 91.8H317.654V97.4641H321.854V91.8Z" fill="white"/>
<path d="M314.578 100.531H310.378V106.195H314.578V100.531Z" fill="white"/>
<path d="M321.854 100.531H317.654V106.195H321.854V100.531Z" fill="white"/>
<path d="M314.578 109.262H310.378V114.926H314.578V109.262Z" fill="white"/>
<path d="M321.854 109.262H317.654V114.926H321.854V109.262Z" fill="white"/>
<path d="M314.578 117.999H310.378V123.663H314.578V117.999Z" fill="white"/>
<path d="M321.854 117.999H317.654V123.663H321.854V117.999Z" fill="white"/>
<path d="M314.578 126.821H310.378V132.485H314.578V126.821Z" fill="white"/>
<path d="M321.854 126.821H317.654V132.485H321.854V126.821Z" fill="white"/>
<path d="M314.578 135.648H310.378V141.312H314.578V135.648Z" fill="white"/>
<path d="M321.854 135.648H317.654V141.312H321.854V135.648Z" fill="white"/>
<path d="M314.578 144.47H310.378V150.134H314.578V144.47Z" fill="white"/>
<path d="M321.854 144.47H317.654V150.134H321.854V144.47Z" fill="white"/>
<path d="M314.578 153.298H310.378V158.962H314.578V153.298Z" fill="white"/>
<path d="M321.854 153.298H317.654V158.962H321.854V153.298Z" fill="white"/>
<path d="M227.611 56.7214H223.411V61.5262H227.611V56.7214Z" fill="white"/>
<path d="M234.888 56.7214H230.688V61.5262H234.888V56.7214Z" fill="white"/>
<path d="M227.611 49.3057H223.411V54.1105H227.611V49.3057Z" fill="white"/>
<path d="M234.888 49.3057H230.688V54.1105H234.888V49.3057Z" fill="white"/>
<path d="M227.611 41.8896H223.411V46.6944H227.611V41.8896Z" fill="white"/>
<path d="M234.888 41.8896H230.688V46.6944H234.888V41.8896Z" fill="white"/>
<path d="M227.611 63.9553H223.411V68.7601H227.611V63.9553Z" fill="white"/>
<path d="M234.888 63.9553H230.688V68.7601H234.888V63.9553Z" fill="white"/>
<path d="M227.611 71.1887H223.411V75.9935H227.611V71.1887Z" fill="white"/>
<path d="M234.888 71.1887H230.688V75.9935H234.888V71.1887Z" fill="white"/>
<path d="M227.611 78.4226H223.411V83.2274H227.611V78.4226Z" fill="white"/>
<path d="M234.888 78.4226H230.688V83.2274H234.888V78.4226Z" fill="white"/>
<path d="M227.611 85.8335H223.411V90.6383H227.611V85.8335Z" fill="white"/>
<path d="M234.888 85.8335H230.688V90.6383H234.888V85.8335Z" fill="white"/>
<path d="M227.611 93.2449H223.411V98.0497H227.611V93.2449Z" fill="white"/>
<path d="M234.888 93.2449H230.688V98.0497H234.888V93.2449Z" fill="white"/>
<path d="M227.611 100.656H223.411V105.461H227.611V100.656Z" fill="white"/>
<path d="M234.888 100.656H230.688V105.461H234.888V100.656Z" fill="white"/>
<path d="M227.611 108.067H223.411V112.872H227.611V108.067Z" fill="white"/>
<path d="M234.888 108.067H230.688V112.872H234.888V108.067Z" fill="white"/>
<path d="M227.611 115.56H223.411V120.365H227.611V115.56Z" fill="white"/>
<path d="M234.888 115.56H230.688V120.365H234.888V115.56Z" fill="white"/>
<path d="M227.611 123.053H223.411V127.858H227.611V123.053Z" fill="white"/>
<path d="M234.888 123.053H230.688V127.858H234.888V123.053Z" fill="white"/>
<path d="M227.611 130.541H223.411V135.346H227.611V130.541Z" fill="white"/>
<path d="M234.888 130.541H230.688V135.346H234.888V130.541Z" fill="white"/>
<path d="M227.611 138.034H223.411V142.838H227.611V138.034Z" fill="white"/>
<path d="M234.888 138.034H230.688V142.838H234.888V138.034Z" fill="white"/>
<path d="M88.2144 63.4895L46.1664 63.4271C46.1664 63.4271 48.2592 60.7055 50.5632 60.3695C50.5632 60.3695 55.0656 47.0303 62.5632 46.9295C69.5424 46.8527 72.3264 55.1519 72.3264 55.1519C72.3264 55.1519 75.5664 51.4367 78.6528 53.1455C81.7392 54.8543 83.4768 59.7263 83.4768 59.7263C83.4768 59.7263 86.9616 61.6175 88.2144 63.4895Z" fill="#EBEBEB"/>
<path d="M267.878 48.0001L321.058 48.0817C321.058 48.0817 321.058 44.6833 313.738 44.0065C313.738 44.0065 307.07 29.1265 296.856 31.1281C290.496 32.3377 287.232 41.0641 287.232 41.0641C287.232 41.0641 282.432 34.1857 278.592 35.5105C274.752 36.8353 272.448 44.1505 272.448 44.1505C272.448 44.1505 268.483 46.0801 267.878 48.0001Z" fill="#EBEBEB"/>
<path d="M138.864 46.152L175.027 46.2048C175.027 46.2048 171.619 43.0224 170.102 43.0224C168.586 43.0224 164.16 32.352 158.515 32.7936C152.87 33.2352 149.846 41.1744 149.846 41.1744C149.846 41.1744 142.978 39.0096 138.864 46.152Z" fill="#EBEBEB"/>
<path d="M239.88 67.325L270.802 67.373C270.802 67.373 269.266 65.3666 267.571 65.117C267.571 65.117 264.293 55.2962 258.773 55.2194C253.642 55.1474 251.573 61.2434 251.573 61.2434C251.573 61.2434 249.202 58.5026 246.931 59.7506C244.661 60.9986 243.36 64.5794 243.36 64.5794C243.36 64.5794 240.806 65.9522 239.88 67.325Z" fill="#EBEBEB"/>
<path d="M178.08 201.624C250.939 201.624 310.003 196.632 310.003 190.474C310.003 184.315 250.939 179.323 178.08 179.323C105.221 179.323 46.1568 184.315 46.1568 190.474C46.1568 196.632 105.221 201.624 178.08 201.624Z" fill="#EBEBEB"/>
<path d="M230.318 217.915C266.438 217.915 295.718 213.998 295.718 209.165C295.718 204.332 266.438 200.415 230.318 200.415C194.199 200.415 164.918 204.332 164.918 209.165C164.918 213.998 194.199 217.915 230.318 217.915Z" fill="#EBEBEB"/>
<path d="M22.8049 164.107L62.1025 163.992L101.4 163.949L180 163.867L258.6 163.949L297.898 163.992L337.195 164.107L297.898 164.227L258.6 164.27L180 164.347L101.4 164.27L62.1025 164.227L22.8049 164.107Z" fill="#263238"/>
<path d="M337.195 159.033H22.8048V164.112H337.195V159.033Z" fill="#C7C7C7"/>
<path d="M38.9808 159.033C39.3008 160.71 39.3008 162.431 38.9808 164.107C38.8083 163.274 38.7278 162.424 38.7408 161.573C38.73 160.72 38.8104 159.869 38.9808 159.033Z" fill="#263238"/>
<path d="M57.7825 159.033C57.9529 159.869 58.0333 160.72 58.0225 161.573C58.0355 162.424 57.955 163.274 57.7825 164.107C57.6123 163.273 57.5319 162.424 57.5425 161.573C57.534 160.72 57.6145 159.869 57.7825 159.033Z" fill="#263238"/>
<path d="M76.5841 159.033C76.9041 160.71 76.9041 162.431 76.5841 164.107C76.2641 162.431 76.2641 160.71 76.5841 159.033Z" fill="#263238"/>
<path d="M95.3905 159.033C95.704 160.71 95.704 162.43 95.3905 164.107C95.0704 162.431 95.0704 160.71 95.3905 159.033Z" fill="#263238"/>
<path d="M114.192 159.033C114.512 160.71 114.512 162.431 114.192 164.107C113.872 162.431 113.872 160.71 114.192 159.033Z" fill="#263238"/>
<path d="M132.994 159.033C133.162 159.869 133.242 160.72 133.234 161.573C133.244 162.424 133.164 163.273 132.994 164.107C132.821 163.274 132.741 162.424 132.754 161.573C132.745 160.72 132.826 159.869 132.994 159.033Z" fill="#263238"/>
<path d="M151.795 159.033C151.966 159.869 152.046 160.72 152.035 161.573C152.048 162.424 151.968 163.274 151.795 164.107C151.475 162.431 151.475 160.71 151.795 159.033Z" fill="#263238"/>
<path d="M170.597 159.033C170.917 160.71 170.917 162.431 170.597 164.107C170.277 162.431 170.277 160.71 170.597 159.033Z" fill="#263238"/>
<path d="M189.403 159.033C189.723 160.71 189.723 162.431 189.403 164.107C189.083 162.431 189.083 160.71 189.403 159.033Z" fill="#263238"/>
<path d="M208.205 159.033C208.525 160.71 208.525 162.431 208.205 164.107C208.032 163.274 207.952 162.424 207.965 161.573C207.954 160.72 208.035 159.869 208.205 159.033Z" fill="#263238"/>
<path d="M227.006 159.033C227.174 159.869 227.255 160.72 227.246 161.573C227.259 162.424 227.179 163.274 227.006 164.107C226.836 163.273 226.756 162.424 226.766 161.573C226.758 160.72 226.838 159.869 227.006 159.033Z" fill="#263238"/>
<path d="M245.808 159.033C246.128 160.71 246.128 162.431 245.808 164.107C245.488 162.431 245.488 160.71 245.808 159.033Z" fill="#263238"/>
<path d="M264.614 159.033C264.928 160.71 264.928 162.43 264.614 164.107C264.294 162.431 264.294 160.71 264.614 159.033Z" fill="#263238"/>
<path d="M283.416 159.033C283.736 160.71 283.736 162.431 283.416 164.107C283.096 162.431 283.096 160.71 283.416 159.033Z" fill="#263238"/>
<path d="M302.218 159.033C302.386 159.869 302.466 160.72 302.458 161.573C302.468 162.424 302.388 163.273 302.218 164.107C302.045 163.274 301.965 162.424 301.978 161.573C301.967 160.72 302.047 159.869 302.218 159.033Z" fill="#263238"/>
<path d="M321.019 159.033C321.19 159.869 321.27 160.72 321.259 161.573C321.272 162.424 321.192 163.274 321.019 164.107C320.699 162.431 320.699 160.71 321.019 159.033Z" fill="#263238"/>
<path d="M324.389 151.166H322.219L322.771 104.856L322.819 100.997H323.789L323.837 104.856L324.389 151.166Z" fill="#1BB462"/>
<path d="M323.837 104.856H322.771L322.819 100.997H323.789L323.837 104.856Z" fill="#263238"/>
<path d="M317.894 86.9522L318.744 102.067L319.742 102.226L320.65 102.37V86.0498L318.72 86.6834L317.894 86.9522Z" fill="#1BB462"/>
<path d="M318.835 88.7185C318.835 88.7185 315.154 88.7521 315.23 88.9585C315.307 89.1649 316.786 89.5777 316.92 89.6737C317.054 89.7697 318.456 92.4529 318.84 92.4529C319.224 92.4529 318.835 88.7185 318.835 88.7185Z" fill="#1BB462"/>
<path d="M319.104 92.9951C319.104 92.9951 315.427 93.0335 315.499 93.2399C315.571 93.4463 317.059 93.8591 317.189 93.9551C317.318 94.0511 318.73 96.7295 319.109 96.7295C319.488 96.7295 319.104 92.9951 319.104 92.9951Z" fill="#1BB462"/>
<path d="M319.378 97.2769C319.378 97.2769 315.696 97.3153 315.773 97.5217C315.85 97.7281 317.328 98.1409 317.462 98.2321C317.597 98.3233 318.998 101.011 319.382 101.011C319.766 101.011 319.378 97.2769 319.378 97.2769Z" fill="#1BB462"/>
<path opacity="0.1" d="M318.72 86.6834L319.742 102.226L320.65 102.37V86.0498L318.72 86.6834Z" fill="black"/>
<path d="M328.714 86.9522L327.864 102.067L326.865 102.226L325.958 102.37V86.0498L327.888 86.6834L328.714 86.9522Z" fill="#1BB462"/>
<path d="M327.778 88.7185C327.778 88.7185 331.454 88.7521 331.378 88.9585C331.301 89.1649 329.822 89.5777 329.688 89.6737C329.554 89.7697 328.152 92.4529 327.768 92.4529C327.384 92.4529 327.778 88.7185 327.778 88.7185Z" fill="#1BB462"/>
<path d="M327.504 92.9951C327.504 92.9951 331.186 93.0335 331.109 93.2399C331.032 93.4463 329.549 93.8591 329.419 93.9551C329.29 94.0511 327.878 96.7295 327.499 96.7295C327.12 96.7295 327.504 92.9951 327.504 92.9951Z" fill="#1BB462"/>
<path d="M327.235 97.2769C327.235 97.2769 330.912 97.3153 330.835 97.5217C330.758 97.7281 329.28 98.1409 329.146 98.2321C329.011 98.3233 327.61 101.011 327.226 101.011C326.842 101.011 327.235 97.2769 327.235 97.2769Z" fill="#1BB462"/>
<path opacity="0.1" d="M327.888 86.6834L326.865 102.226L325.958 102.37V86.0498L327.888 86.6834Z" fill="black"/>
<path d="M326.76 84.8206L326.458 102.739H320.15L319.848 84.8206H326.76Z" fill="#1BB462"/>
<path d="M325.55 87.9984C325.55 88.4427 325.419 88.877 325.172 89.2464C324.925 89.6158 324.574 89.9037 324.164 90.0738C323.753 90.2438 323.301 90.2883 322.866 90.2016C322.43 90.1149 322.03 89.901 321.716 89.5868C321.401 89.2726 321.187 88.8724 321.101 88.4366C321.014 88.0008 321.059 87.5492 321.229 87.1387C321.399 86.7282 321.687 86.3774 322.056 86.1305C322.425 85.8837 322.86 85.752 323.304 85.752C323.9 85.752 324.471 85.9886 324.892 86.4099C325.314 86.8312 325.55 87.4026 325.55 87.9984Z" fill="#DD6A57"/>
<path d="M325.55 99.3602C325.55 99.8045 325.419 100.239 325.172 100.608C324.925 100.978 324.574 101.266 324.164 101.436C323.753 101.606 323.301 101.65 322.866 101.563C322.43 101.477 322.03 101.263 321.716 100.949C321.401 100.634 321.187 100.234 321.101 99.7984C321.014 99.3627 321.059 98.911 321.229 98.5005C321.399 98.09 321.687 97.7392 322.056 97.4924C322.425 97.2455 322.86 97.1138 323.304 97.1138C323.9 97.1138 324.471 97.3504 324.892 97.7717C325.314 98.193 325.55 98.7644 325.55 99.3602Z" fill="white"/>
<path d="M325.55 93.7295C325.549 94.1736 325.417 94.6074 325.169 94.9762C324.922 95.345 324.571 95.6322 324.16 95.8015C323.75 95.9707 323.298 96.0145 322.863 95.9273C322.427 95.8401 322.028 95.6258 321.714 95.3114C321.4 94.9971 321.187 94.5968 321.1 94.1612C321.014 93.7255 321.059 93.2741 321.229 92.8639C321.399 92.4537 321.687 92.1031 322.056 91.8565C322.426 91.6099 322.86 91.4783 323.304 91.4783C323.599 91.4783 323.892 91.5365 324.165 91.6497C324.438 91.7629 324.685 91.9288 324.894 92.1379C325.103 92.347 325.268 92.5952 325.381 92.8683C325.493 93.1414 325.551 93.4341 325.55 93.7295Z" fill="white"/>
<path d="M325.042 159.033H321.566L321.864 149.933L321.955 147.105H324.581L324.691 149.933L325.042 159.033Z" fill="#1BB462"/>
<path d="M324.691 149.933H321.864L321.955 147.105H324.581L324.691 149.933Z" fill="#455A64"/>
<path d="M67.2001 170.539H124.32C124.32 170.539 118.08 143.856 95.7649 143.856C73.4497 143.856 68.1601 164.582 67.2001 170.539Z" fill="#1BB462"/>
<path opacity="0.2" d="M67.2001 170.539H124.32C124.32 170.539 118.08 143.856 95.7649 143.856C73.4497 143.856 68.1601 164.582 67.2001 170.539Z" fill="black"/>
<path d="M232.944 173.419H290.064C290.064 173.419 283.824 146.736 261.509 146.736C239.194 146.736 233.928 167.462 232.944 173.419Z" fill="#1BB462"/>
<path opacity="0.2" d="M232.944 173.419H290.064C290.064 173.419 283.824 146.736 261.509 146.736C239.194 146.736 233.928 167.462 232.944 173.419Z" fill="black"/>
<path d="M54.1296 121.872C52.9056 123.792 50.7696 145.243 50.6304 145.992C50.4912 146.741 48.7104 150.024 48.7104 150.648C48.7104 151.272 48.2304 160.93 48.4944 161.554C49.0726 162.693 49.7302 163.79 50.4624 164.837C50.7744 165.211 58.8672 172.176 59.7744 172.272C60.6816 172.368 69.0528 172.426 69.2112 172.272C69.3696 172.118 70.3344 146.352 95.736 146.352C121.138 146.352 120.859 173.712 121.33 173.818C121.8 173.923 235.507 176.506 235.507 176.506C235.507 172.315 235.834 147.384 260.75 147.384C276.984 147.384 285.187 160.762 285.47 170.63C285.586 174.739 284.899 179.27 285.125 179.27C285.874 179.27 288.437 179.458 288.874 179.27C289.31 179.083 294.634 175.579 295.061 175.454C295.488 175.33 298.56 175.267 299.309 175.08C300.058 174.893 305.309 170.28 305.405 170.112C305.501 169.944 305.654 168.115 305.683 167.957C305.712 167.798 311.03 161.299 311.28 160.584C311.53 159.869 311.621 153.926 311.621 153.331C311.621 152.736 301.968 137.083 299.717 135.398C297.466 133.714 281.438 128.088 276.749 127.238C272.059 126.389 246.283 122.549 245.347 121.896C244.411 121.243 200.395 95.9999 192.739 94.1231C186.552 92.6255 114.936 94.6847 111.187 94.8719C107.438 95.0591 97.0608 96.9359 96.0624 96.9359C95.064 96.9359 83.5824 96.8735 82.8768 97.1855C82.1712 97.4975 82.8768 100.248 83.7504 100.747C84.624 101.246 56.256 118.498 54.1296 121.872Z" fill="#1BB462"/>
<path d="M55.7713 120.245C56.0401 120.494 60.5185 120.605 60.9889 120.418C61.4593 120.23 89.6641 101.467 89.6833 100.92C89.6833 100.646 84.4033 100.718 83.7505 100.747C83.0977 100.776 55.2529 119.774 55.7713 120.245Z" fill="#455A64"/>
<path d="M87.1824 119.947C88.4064 123.557 236.549 130.306 237.36 128.558C237.96 127.262 224.707 116.621 218.52 113.15C212.333 109.68 194.616 99.6528 185.88 98.6208C177.144 97.5888 159.48 97.6608 144.072 97.968C128.789 98.2464 110.794 98.6208 104.419 101.328C98.8464 103.728 86.2128 117.077 87.1824 119.947Z" fill="#263238"/>
<path d="M91.3153 117.84C91.6849 119.199 124.402 122.717 162.744 124.498C201.086 126.279 220.018 126.557 220.488 126.37C220.958 126.182 219.173 115.968 218.52 115.123C217.867 114.279 190.397 100.219 186.086 99.8401C181.776 99.4609 158.477 99.4177 146.726 99.6049C134.976 99.7921 110.453 101.199 106.277 102.883C102.595 104.371 90.9361 116.482 91.3153 117.84Z" fill="#455A64"/>
<g opacity="0.1">
<path opacity="0.1" d="M142.08 99.7249L120.12 121.685C116.203 121.339 112.579 120.994 109.325 120.662L129.672 100.32C134.011 100.042 138.336 99.8401 142.08 99.7249Z" fill="white"/>
<path opacity="0.1" d="M220.411 124.205L218.198 126.418C215.958 126.418 212.094 126.344 206.606 126.197L218.03 114.778C218.201 114.876 218.362 114.99 218.51 115.119C218.986 115.723 220.032 121.109 220.411 124.205Z" fill="white"/>
<path opacity="0.1" d="M158.448 99.5137L135.096 122.88C133.224 122.75 131.386 122.616 129.595 122.477L152.51 99.5569C154.392 99.5281 156.394 99.5137 158.448 99.5137Z" fill="white"/>
<path opacity="0.1" d="M208.574 109.747L192.571 125.76L186.878 125.549L204.638 107.789C205.987 108.446 207.312 109.104 208.574 109.747Z" fill="white"/>
<path opacity="0.1" d="M125.76 100.541L106.008 120.302L104.501 120.134L123.97 100.666L125.76 100.541Z" fill="white"/>
<path opacity="0.1" d="M211.978 111.49L197.578 125.918L195.955 125.861L210.893 110.918L211.978 111.49Z" fill="white"/>
<path opacity="0.1" d="M191.256 101.578L168.096 124.738L166.483 124.67L190.08 101.093L191.256 101.578Z" fill="white"/>
<path opacity="0.1" d="M110.064 102.048L93.5328 118.56C92.9808 118.449 92.5248 118.344 92.1744 118.238L108.014 102.398C108.614 102.283 109.296 102.163 110.064 102.048Z" fill="white"/>
</g>
<path d="M111.84 101.798C111.994 101.798 112.066 102 111.931 102.36C111.163 104.486 105.168 116.53 103.67 119.342C103.576 119.494 103.452 119.624 103.306 119.727C103.16 119.829 102.995 119.901 102.821 119.938L113.381 121.066C113.196 120.991 113.042 120.855 112.947 120.68C112.851 120.504 112.82 120.301 112.858 120.106C112.963 119.438 116.885 105.283 118.138 101.803C118.278 101.481 118.528 101.219 118.843 101.064C119.054 101.064 117.043 101.093 115.133 101.29C113.434 101.472 111.84 101.798 111.84 101.798Z" fill="#263238"/>
<path d="M125.76 100.541C125.76 100.541 125.952 100.646 125.962 101.021C126.029 104.352 126.403 121.032 126.082 121.944C126.061 122.035 126.006 122.114 125.928 122.165L127.925 122.323C127.822 122.183 127.759 122.017 127.742 121.843C127.517 119.026 127.315 103.733 127.354 100.906C127.366 100.73 127.431 100.563 127.541 100.426L125.76 100.541Z" fill="#263238"/>
<path d="M158.607 100.2C158.842 100.939 159.231 122.717 159.231 123.418C159.231 124.119 158.429 124.287 158.429 124.287L170.808 124.863C170.808 124.863 170.007 124.637 169.848 124.263C169.69 123.888 165.816 100.407 165.84 100.099C165.864 99.7921 166.474 99.5042 166.474 99.5042H157.834C158.003 99.5615 158.159 99.6528 158.292 99.7725C158.425 99.8922 158.532 100.038 158.607 100.2Z" fill="#263238"/>
<path d="M56.3185 124.934C54.7969 125.126 51.3793 128.683 51.1297 129.432C50.8801 130.181 49.9441 135.245 50.4433 135.994C50.9425 136.742 52.7569 138.619 54.3169 138.682C55.8769 138.744 63.5041 135.12 64.1905 134.496C64.8769 133.872 65.3761 130.066 64.5649 128.842C63.7537 127.618 58.2529 124.685 56.3185 124.934Z" fill="white"/>
<path d="M64.1905 134.496C63.5041 135.12 55.8769 138.744 54.3169 138.682C53.1265 138.634 51.7873 137.53 51.0001 136.675C51.887 137.317 52.9582 137.654 54.0529 137.635C54.8929 137.558 62.0353 134.486 62.9521 133.646C63.8689 132.806 63.9121 129.643 63.7873 129.072C63.6625 128.501 59.0545 125.53 59.0545 125.53C61.3345 126.408 64.0177 128.011 64.5649 128.837C65.3761 130.08 64.8769 133.867 64.1905 134.496Z" fill="#EBEBEB"/>
<path d="M50.0065 153.211C49.5841 153.634 49.4401 156.806 49.8817 157.085C50.3233 157.363 52.8817 157.334 53.3809 157.085C53.8801 156.835 55.1617 154.459 55.0657 153.648C54.9697 152.837 50.5057 152.712 50.0065 153.211Z" fill="white"/>
<path d="M278.136 135.648C279.485 137.832 289.387 141.696 293.088 142.305C295.421 142.689 303.494 143.198 303.965 142.785C304.435 142.373 300.542 136.973 298.526 135.657C296.51 134.342 286.435 130.973 283.387 131.112C280.339 131.251 276.778 133.44 278.136 135.648Z" fill="white"/>
<path d="M303.965 142.776C303.485 143.199 295.421 142.69 293.088 142.296C289.387 141.687 279.485 137.823 278.136 135.639C276.787 133.455 280.339 131.237 283.387 131.093C283.624 131.079 283.861 131.079 284.098 131.093C281.261 132.139 280.68 134.357 282.408 135.624C284.136 136.891 289.675 139.853 291.888 140.472C294.019 141.072 301.968 142.311 302.659 141.768C302.791 141.612 302.886 141.428 302.939 141.231C302.991 141.033 302.999 140.827 302.962 140.626C303.691 141.744 304.142 142.618 303.965 142.776Z" fill="#EBEBEB"/>
<g opacity="0.5">
<path opacity="0.5" d="M87.9504 135.139C87.9599 136.473 87.4423 137.756 86.5104 138.711C85.5641 139.684 84.2703 140.241 82.913 140.261C81.5558 140.281 80.2462 139.761 79.272 138.816C78.7797 138.339 78.3884 137.768 78.1211 137.137C77.8538 136.506 77.7161 135.827 77.7161 135.142C77.7161 134.456 77.8538 133.778 78.1211 133.147C78.3884 132.515 78.7797 131.944 79.272 131.467C79.7537 130.998 80.3233 130.629 80.9481 130.38C81.5729 130.131 82.2407 130.008 82.9131 130.018C83.5855 130.028 84.2493 130.17 84.8666 130.437C85.4839 130.704 86.0425 131.09 86.5104 131.573C87.442 132.525 87.9596 133.807 87.9504 135.139ZM87.9504 135.139C87.9394 133.813 87.4025 132.546 86.4576 131.616C85.9899 131.166 85.438 130.812 84.8335 130.574C84.229 130.337 83.5836 130.221 82.9344 130.234C81.6435 130.26 80.4152 130.794 79.5168 131.722C78.6274 132.638 78.13 133.865 78.13 135.142C78.13 136.419 78.6274 137.645 79.5168 138.562C80.4152 139.489 81.6435 140.024 82.9344 140.05C83.5836 140.062 84.229 139.946 84.8335 139.709C85.438 139.472 85.9899 139.118 86.4576 138.667C87.4019 137.735 87.9386 136.466 87.9504 135.139Z" fill="black"/>
<path opacity="0.5" d="M67.1999 150.37C66.6911 149.237 66.2399 148.095 65.7599 146.943C65.2799 145.791 64.8767 144.639 64.4351 143.482C63.9935 142.325 63.5951 141.159 63.2015 139.987C62.8079 138.816 62.4143 137.64 62.0687 136.45C62.5823 137.583 63.0287 138.725 63.5087 139.872C63.9887 141.019 64.3919 142.181 64.8383 143.338C65.2847 144.495 65.6783 145.661 66.0719 146.832C66.4655 148.003 66.8447 149.179 67.1999 150.37Z" fill="black"/>
<path opacity="0.5" d="M49.6128 150.37C52.0752 150.322 54.5328 150.326 56.9952 150.336L64.3728 150.413L71.7504 150.59C74.208 150.667 76.6656 150.749 79.1232 150.878C76.6656 150.926 74.2032 150.922 71.7456 150.917L64.3632 150.835L56.9856 150.658C54.528 150.581 52.0704 150.499 49.6128 150.37Z" fill="black"/>
<path opacity="0.5" d="M165.763 126.432L166.608 132.427L166.973 135.432C167.03 135.936 167.083 136.435 167.122 136.944C167.16 137.453 167.122 137.952 167.122 138.461L167.04 150.567L166.944 156.624L166.891 159.648L166.867 161.165L166.752 162.672L166.272 168.711L165.763 174.72L166.07 168.677L166.416 162.639L166.502 161.127V159.615L166.531 156.591L166.594 150.547L166.8 138.451C166.8 137.947 166.843 137.439 166.8 136.944C166.757 136.45 166.728 135.941 166.68 135.442L166.378 132.432L165.763 126.432Z" fill="black"/>
<path opacity="0.5" d="M232.238 129.183L233.28 135.207L233.76 138.24L233.885 138.994C233.939 139.245 233.97 139.5 233.976 139.757C233.976 140.266 233.976 140.775 233.976 141.288C233.942 145.363 233.842 149.448 233.717 153.509C233.685 154.527 233.642 155.544 233.587 156.562C233.53 157.589 233.333 158.603 233.002 159.576C232.445 161.539 231.806 163.474 231.106 165.394C230.422 167.319 229.607 169.196 228.667 171.01L228.288 171.682C228.158 171.903 228.01 172.114 227.87 172.33C227.725 172.547 227.564 172.754 227.39 172.949L227.141 173.251C227.005 173.332 226.852 173.378 226.694 173.386C225.662 173.491 224.65 173.506 223.627 173.539C215.467 173.707 207.331 173.635 199.181 173.578C191.03 173.52 182.885 173.4 174.734 173.251C166.584 173.103 158.443 172.877 150.298 172.579C146.227 172.411 142.138 172.277 138.086 171.912C137.565 171.874 137.048 171.792 136.541 171.667C136.253 171.557 136.085 171.423 135.84 171.317C135.595 171.211 135.389 171.096 135.158 170.991C134.232 170.573 133.282 170.203 132.36 169.743C131.426 169.299 130.561 168.724 129.792 168.034C129.123 167.251 128.504 166.427 127.939 165.567C125.645 162.207 123.451 158.76 121.262 155.328C119.074 151.896 116.904 148.44 114.749 144.984C112.594 141.528 110.467 138.048 108.365 134.559L107.587 133.243L107.4 132.898L107.309 132.725C107.294 132.662 107.286 132.598 107.285 132.533L107.208 131.775C107.122 130.757 107.045 129.739 107.006 128.722C107.006 128.467 107.006 128.213 107.006 127.954C107.04 127.7 107.094 127.449 107.17 127.205C107.309 126.725 107.477 126.245 107.65 125.765C107.99 124.805 108.355 123.845 108.734 122.909C108.363 123.869 108.01 124.829 107.674 125.789C107.51 126.269 107.347 126.749 107.194 127.229C107.12 127.472 107.067 127.721 107.035 127.973C107.035 128.227 107.035 128.482 107.035 128.736C107.078 129.749 107.17 130.767 107.261 131.779L107.342 132.538C107.347 132.601 107.357 132.663 107.371 132.725L107.462 132.888C107.525 132.994 107.578 133.099 107.645 133.21L108.432 134.52C110.558 137.991 112.752 141.442 114.902 144.888C119.222 151.776 123.576 158.683 128.15 165.423C128.705 166.259 129.311 167.061 129.965 167.823C130.717 168.491 131.561 169.048 132.47 169.479C133.378 169.925 134.323 170.29 135.259 170.712C135.494 170.818 135.739 170.923 135.955 171.039C136.171 171.154 136.435 171.307 136.622 171.375C137.106 171.485 137.597 171.559 138.091 171.595C142.138 171.951 146.218 172.075 150.288 172.224C158.448 172.503 166.574 172.68 174.72 172.829C182.866 172.978 191.011 173.136 199.162 173.227C207.312 173.319 215.482 173.405 223.598 173.261C224.611 173.232 225.638 173.218 226.637 173.117C226.752 173.117 226.901 173.069 226.92 173.064L227.16 172.776C227.325 172.588 227.476 172.387 227.611 172.176C227.746 171.965 227.894 171.759 228.024 171.543L228.398 170.885C229.355 169.079 230.184 167.209 230.88 165.288C231.587 163.368 232.227 161.437 232.8 159.495C233.126 158.538 233.323 157.542 233.386 156.533L233.525 153.48C233.688 149.41 233.822 145.32 233.89 141.264C233.89 140.755 233.89 140.247 233.89 139.743C233.882 139.488 233.853 139.234 233.803 138.984L233.683 138.231L233.203 135.216L232.238 129.183Z" fill="black"/>
<path opacity="0.5" d="M284.674 139.541C283.615 140.431 282.492 141.241 281.314 141.965C280.147 142.718 278.957 143.429 277.776 144.154C276.595 144.878 275.376 145.55 274.171 146.222C272.966 146.894 271.742 147.552 270.499 148.171C271.656 147.403 272.832 146.669 274.008 145.939L277.56 143.789L281.141 141.691L282.936 140.645C283.537 140.312 284.117 139.943 284.674 139.541Z" fill="black"/>
<path opacity="0.5" d="M113.155 151.459L129.024 151.877L144.898 152.357L176.64 153.326L208.378 154.435L224.246 154.992L240.11 155.616L224.237 155.198L208.368 154.718L176.626 153.749L144.888 152.64L129.019 152.078L113.155 151.459Z" fill="black"/>
<path opacity="0.5" d="M112.219 128.712L111.595 128.746H111.442C111.408 128.746 111.403 128.775 111.384 128.823C111.357 128.92 111.338 129.02 111.326 129.12C111.287 129.527 111.279 129.936 111.302 130.344C111.308 130.547 111.325 130.749 111.355 130.949C111.367 131.039 111.39 131.128 111.422 131.213H111.47H111.586C111.989 131.251 112.406 131.261 112.814 131.275C114.466 131.328 116.122 131.381 117.773 131.41L120.25 131.482H121.488H122.016C122.043 131.433 122.065 131.381 122.083 131.328C122.108 131.235 122.127 131.14 122.141 131.045C122.195 130.644 122.212 130.239 122.194 129.835C122.188 129.634 122.17 129.434 122.141 129.235C122.128 129.156 122.106 129.079 122.074 129.005C122.001 128.969 121.923 128.947 121.843 128.938C121.042 128.799 120.206 128.751 119.386 128.669C120.217 128.646 121.048 128.668 121.877 128.736C122.001 128.738 122.122 128.775 122.227 128.842C122.304 128.943 122.353 129.062 122.371 129.187C122.416 129.396 122.446 129.608 122.462 129.821C122.498 130.243 122.498 130.667 122.462 131.088C122.451 131.198 122.434 131.307 122.41 131.415C122.387 131.566 122.306 131.702 122.184 131.794C122.149 131.819 122.107 131.832 122.064 131.832H121.968H121.8H120.245L117.758 131.799C116.107 131.736 114.451 131.688 112.8 131.568C112.382 131.53 111.974 131.506 111.552 131.443C111.49 131.44 111.428 131.427 111.37 131.405C111.332 131.399 111.297 131.386 111.264 131.367C111.229 131.338 111.202 131.299 111.187 131.256C111.145 131.149 111.119 131.035 111.11 130.92C111.088 130.71 111.08 130.498 111.086 130.287C111.093 129.868 111.133 129.451 111.206 129.039C111.226 128.934 111.255 128.831 111.293 128.731C111.302 128.704 111.315 128.678 111.331 128.655C111.343 128.639 111.358 128.626 111.376 128.618C111.393 128.61 111.413 128.606 111.432 128.607H111.586L112.219 128.712Z" fill="black"/>
<path opacity="0.5" d="M172.963 130.215L172.344 130.248H172.19C172.157 130.248 172.147 130.277 172.128 130.325C172.101 130.422 172.083 130.522 172.075 130.623C172.034 131.029 172.025 131.438 172.046 131.847C172.046 132.053 172.07 132.255 172.099 132.451C172.113 132.542 172.137 132.63 172.171 132.715C172.171 132.715 172.171 132.739 172.171 132.715H172.214H172.334C172.738 132.754 173.155 132.763 173.563 132.778C175.214 132.831 176.866 132.883 178.517 132.912L180.998 132.984H182.232H182.741C182.77 132.984 182.789 132.984 182.741 132.984C182.769 132.938 182.79 132.888 182.803 132.835C182.83 132.742 182.85 132.648 182.866 132.552C182.917 132.151 182.935 131.747 182.918 131.343C182.911 131.142 182.892 130.941 182.861 130.743C182.849 130.664 182.828 130.586 182.798 130.512C182.726 130.477 182.648 130.454 182.568 130.445C181.762 130.306 180.931 130.258 180.11 130.176C180.94 130.154 181.77 130.175 182.597 130.239C182.722 130.241 182.843 130.28 182.947 130.349C183.025 130.45 183.076 130.569 183.096 130.695C183.139 130.906 183.163 131.117 183.187 131.328C183.223 131.75 183.223 132.174 183.187 132.595C183.176 132.705 183.159 132.814 183.134 132.922C183.086 133.032 183.106 133.152 182.909 133.301C182.872 133.327 182.829 133.34 182.784 133.339H182.693H182.525H180.965L178.483 133.306C176.827 133.243 175.176 133.195 173.52 133.071C173.107 133.037 172.699 133.008 172.277 132.951C172.213 132.947 172.15 132.934 172.09 132.912C172.055 132.903 172.021 132.89 171.989 132.874C171.955 132.843 171.927 132.805 171.907 132.763C171.867 132.655 171.843 132.542 171.835 132.427C171.814 132.217 171.804 132.005 171.806 131.794C171.817 131.375 171.858 130.958 171.931 130.546C171.949 130.441 171.977 130.338 172.013 130.239C172.024 130.211 172.039 130.186 172.056 130.162C172.067 130.146 172.083 130.133 172.1 130.125C172.118 130.116 172.137 130.113 172.157 130.114H172.31L172.963 130.215Z" fill="black"/>
</g>
<path d="M111.953 188.496C121.178 179.271 121.178 164.315 111.953 155.091C102.729 145.866 87.7728 145.866 78.5483 155.091C69.3238 164.315 69.3238 179.271 78.5483 188.496C87.7728 197.72 102.729 197.72 111.953 188.496Z" fill="#263238"/>
<path d="M107.446 183.988C114.181 177.253 114.181 166.333 107.446 159.598C100.711 152.863 89.7908 152.863 83.0556 159.598C76.3205 166.333 76.3205 177.253 83.0556 183.988C89.7908 190.723 100.711 190.723 107.446 183.988Z" fill="#DBDBDB"/>
<path d="M95.2513 187.699C104.034 187.699 111.154 180.579 111.154 171.797C111.154 163.014 104.034 155.894 95.2513 155.894C86.4686 155.894 79.3489 163.014 79.3489 171.797C79.3489 180.579 86.4686 187.699 95.2513 187.699Z" fill="#A6A6A6"/>
<path d="M97.7472 167.808H92.7504C94.4352 165.37 88.5648 156.874 88.5648 156.874L91.2 156C92.9472 159 93.8208 159.878 95.2608 159.878C96.7008 159.878 97.5696 159 99.3216 156L101.947 156.878C101.947 156.878 96.0624 165.37 97.7472 167.808Z" fill="#DBDBDB"/>
<path d="M92.3329 168.11L90.7921 172.862C88.9969 170.505 79.0993 173.467 79.0993 173.467V170.697C82.4929 169.963 83.5969 169.401 84.0433 168.033C84.4897 166.665 83.9185 165.566 81.6097 162.969L83.2561 160.747C83.2561 160.747 89.4961 168.96 92.3329 168.11Z" fill="#DBDBDB"/>
<path d="M90.9505 173.352L94.9921 176.289C92.1937 177.249 91.9537 187.593 91.9537 187.593L89.3137 186.763C89.6593 183.307 89.4721 182.083 88.3057 181.238C87.1393 180.393 85.9057 180.59 82.7377 181.987L81.1201 179.736C81.1201 179.736 90.8833 176.313 90.9505 173.352Z" fill="#DBDBDB"/>
<path d="M95.52 176.289L99.5616 173.352C99.6288 176.313 109.378 179.736 109.378 179.736L107.77 181.992C104.592 180.59 103.368 180.393 102.206 181.238C101.045 182.083 100.853 183.307 101.198 186.763L98.5584 187.593C98.5584 187.593 98.304 177.269 95.52 176.289Z" fill="#DBDBDB"/>
<path d="M99.7105 172.862L98.1649 168.11C101.002 168.96 107.285 160.747 107.285 160.747L108.936 162.974C106.622 165.561 106.056 166.665 106.498 168.033C106.939 169.401 108.053 169.953 111.446 170.702L111.418 173.467C111.418 173.467 101.506 170.505 99.7105 172.862Z" fill="#DBDBDB"/>
<path d="M95.2513 176.299C97.8015 176.299 99.8689 174.232 99.8689 171.682C99.8689 169.131 97.8015 167.064 95.2513 167.064C92.701 167.064 90.6337 169.131 90.6337 171.682C90.6337 174.232 92.701 176.299 95.2513 176.299Z" fill="#DBDBDB"/>
<path d="M268.788 192.561C281.05 188.125 287.395 174.589 282.96 162.326C278.525 150.063 264.988 143.718 252.725 148.153C240.463 152.589 234.117 166.125 238.553 178.388C242.988 190.651 256.525 196.996 268.788 192.561Z" fill="#263238"/>
<path d="M277.22 176.209C279.651 166.999 274.157 157.563 264.947 155.131C255.738 152.7 246.301 158.194 243.87 167.404C241.438 176.613 246.933 186.05 256.142 188.481C265.351 190.913 274.788 185.418 277.22 176.209Z" fill="#DBDBDB"/>
<path d="M260.534 187.699C269.317 187.699 276.437 180.579 276.437 171.797C276.437 163.014 269.317 155.894 260.534 155.894C251.752 155.894 244.632 163.014 244.632 171.797C244.632 180.579 251.752 187.699 260.534 187.699Z" fill="#A6A6A6"/>
<path d="M263.04 167.808H258.034C259.723 165.37 253.848 156.874 253.848 156.874L256.474 155.995C258.221 158.995 259.095 159.874 260.535 159.874C261.975 159.874 262.843 158.995 264.6 155.995L267.221 156.874C267.221 156.874 261.346 165.37 263.04 167.808Z" fill="#DBDBDB"/>
<path d="M257.616 168.11L256.075 172.862C254.28 170.505 244.382 173.467 244.382 173.467L244.358 170.697C247.752 169.963 248.856 169.401 249.302 168.033C249.749 166.665 249.178 165.566 246.869 162.969L248.515 160.747C248.515 160.747 254.779 168.96 257.616 168.11Z" fill="#DBDBDB"/>
<path d="M256.234 173.352L260.275 176.289C257.482 177.249 257.237 187.593 257.237 187.593L254.597 186.763C254.947 183.307 254.755 182.083 253.594 181.238C252.432 180.393 251.194 180.59 248.026 181.987L246.418 179.736C246.418 179.736 256.166 176.313 256.234 173.352Z" fill="#DBDBDB"/>
<path d="M260.794 176.289L264.835 173.352C264.902 176.313 274.646 179.736 274.646 179.736L273.039 181.992C269.861 180.59 268.637 180.393 267.475 181.238C266.314 182.083 266.122 183.307 266.467 186.763L263.827 187.593C263.827 187.593 263.587 177.269 260.794 176.289Z" fill="#DBDBDB"/>
<path d="M264.994 172.862L263.448 168.11C266.285 168.96 272.568 160.747 272.568 160.747L274.214 162.974C271.901 165.561 271.334 166.665 271.781 168.033C272.227 169.401 273.331 169.953 276.725 170.702L276.696 173.467C276.696 173.467 266.789 170.505 264.994 172.862Z" fill="#DBDBDB"/>
<path d="M260.534 176.299C263.085 176.299 265.152 174.232 265.152 171.682C265.152 169.131 263.085 167.064 260.534 167.064C257.984 167.064 255.917 169.131 255.917 171.682C255.917 174.232 257.984 176.299 260.534 176.299Z" fill="#DBDBDB"/>
<path d="M215.064 117.557C214.205 118.421 214.282 126.12 214.906 126.744C215.53 127.368 224.093 127.934 224.779 123.153C225.466 118.373 216.408 116.213 215.064 117.557Z" fill="#1BB462"/>
<path d="M246.307 122.16H239.342C221.218 110.203 196.344 98.371 196.344 98.371L200.472 97.3774C215.53 104.664 244.565 121.334 245.328 121.857C245.641 121.997 245.97 122.098 246.307 122.16Z" fill="#455A64"/>
<g opacity="0.5">
<path opacity="0.5" d="M67.2001 156.365C68.6524 153.966 70.4292 151.778 72.4801 149.865C74.5308 147.934 76.8177 146.269 79.2865 144.912C84.2646 142.207 89.8553 140.83 95.5201 140.913L97.6321 141.009L98.6881 141.062C99.0385 141.101 99.3889 141.158 99.7393 141.206L101.832 141.504C102.523 141.648 103.205 141.83 103.891 141.984C106.637 142.663 109.254 143.784 111.638 145.305C114.007 146.836 116.123 148.728 117.907 150.912C119.646 153.117 121.132 155.509 122.338 158.045C121.042 155.568 119.486 153.236 117.696 151.089C115.894 148.968 113.773 147.139 111.408 145.67C106.675 142.718 101.054 141.518 95.5201 141.465C92.7405 141.422 89.9661 141.72 87.2593 142.353C84.554 142.997 81.9412 143.981 79.4833 145.281C77.0171 146.581 74.7239 148.186 72.6577 150.057C70.5693 151.911 68.7343 154.032 67.2001 156.365Z" fill="white"/>
<path opacity="0.5" d="M232.694 156.365C234.147 153.966 235.924 151.779 237.974 149.866C240.031 147.933 242.325 146.268 244.8 144.912C249.781 142.206 255.375 140.829 261.043 140.914L263.155 141.01L264.211 141.062C264.562 141.101 264.912 141.158 265.258 141.206L267.355 141.504C268.042 141.648 268.728 141.83 269.414 141.984C272.16 142.663 274.777 143.785 277.162 145.306C279.531 146.836 281.646 148.728 283.43 150.912C285.169 153.117 286.655 155.509 287.861 158.045C286.488 155.606 285.072 153.182 283.219 151.09C281.415 148.97 279.294 147.142 276.931 145.67C272.198 142.718 266.578 141.518 261.038 141.466C258.26 141.422 255.488 141.72 252.782 142.354C247.345 143.653 242.323 146.303 238.181 150.058C236.081 151.908 234.236 154.029 232.694 156.365Z" fill="white"/>
<path opacity="0.5" d="M70.608 117.163C74.2896 114.283 78.024 111.466 81.7824 108.687C85.5408 105.907 89.3424 103.176 93.2544 100.589C93.7344 100.277 94.2432 99.9601 94.7568 99.6673C95.0112 99.5137 95.2704 99.3697 95.544 99.2353C95.8195 99.101 96.1072 98.9933 96.4032 98.9138C97.536 98.5826 98.6688 98.2945 99.8016 98.0113C102.077 97.4497 104.352 96.9121 106.651 96.4657C108.959 96.0229 111.3 95.782 113.65 95.7457C115.992 95.6977 118.33 95.7025 120.667 95.8129C118.33 95.8129 115.992 95.8801 113.664 96.0241C111.336 96.111 109.02 96.4001 106.742 96.8881C104.467 97.4017 102.187 97.9249 99.9312 98.5057C98.7984 98.7985 97.6656 99.0913 96.5712 99.4273C96.3024 99.4994 96.0419 99.5991 95.7936 99.7249C95.544 99.8545 95.2896 99.9937 95.0448 100.143C94.5648 100.435 94.056 100.747 93.5664 101.064C89.6544 103.599 85.8864 106.344 82.0464 109.037L70.608 117.163Z" fill="white"/>
</g>
<path opacity="0.1" d="M253.848 148.099C235.752 152.237 235.488 172.733 235.488 176.491C235.488 176.491 121.776 173.899 121.31 173.803C120.931 173.722 121.046 155.779 107.626 148.939C113.654 151.92 121.378 159.139 124.301 169.68C124.618 170.803 141.178 172.56 169.483 173.467C197.789 174.374 222.394 173.803 227.083 173.146C231.773 172.488 237.211 148.027 253.848 148.099Z" fill="black"/>
<path opacity="0.1" d="M311.261 160.555C311.011 161.275 305.693 167.755 305.669 167.928C305.645 168.101 305.482 169.896 305.386 170.088C305.29 170.28 300.038 174.888 299.29 175.051C298.541 175.214 295.478 175.301 295.046 175.426C294.614 175.55 289.287 179.05 288.855 179.237C288.423 179.424 285.854 179.237 285.106 179.237C284.88 179.237 285.586 174.72 285.451 170.597C285.245 163.435 280.872 154.421 272.28 150.019C276.941 151.013 284.717 157.378 287.856 163.939C290.995 170.501 290.189 170.986 290.923 171.778C291.658 172.57 294.091 170.971 295.215 170.688C296.338 170.405 300.014 170.314 301.406 170.035C302.798 169.757 303.038 167.222 304.003 166.675C304.968 166.128 309.869 162.211 311.261 160.555Z" fill="black"/>
<path d="M192 50.9327C191.405 44.9423 187.277 38.9807 180 38.9807C172.723 38.9807 168.624 44.9423 168.029 50.9327C167.112 60.1775 173.352 68.5535 180 76.1951C186.653 68.5535 192.893 60.1775 192 50.9327ZM180 57.5999C178.702 57.599 177.434 57.2132 176.355 56.4914C175.277 55.7696 174.437 54.7442 173.941 53.5449C173.445 52.3456 173.316 51.0261 173.57 49.7535C173.824 48.4809 174.45 47.3122 175.368 46.3952C176.287 45.4782 177.456 44.8541 178.729 44.6019C180.002 44.3496 181.322 44.4805 182.52 44.978C183.719 45.4755 184.743 46.3173 185.463 47.3969C186.183 48.4765 186.567 49.7453 186.566 51.0431C186.567 51.9051 186.397 52.7588 186.068 53.5553C185.738 54.3517 185.254 55.0752 184.644 55.6843C184.034 56.2934 183.31 56.7761 182.513 57.1049C181.716 57.4336 180.862 57.6018 180 57.5999Z" fill="#1BB462"/>
<path d="M208.603 210.994C209.563 211.296 236.237 210.951 237.245 210.288C237.634 210.043 237.806 206.151 237.888 201.442V201.293C237.888 200.333 237.917 199.325 237.922 198.312C237.922 198.173 237.922 198.034 237.922 197.895L236.64 184.047L218.779 184.224L220.541 197.943L220.565 198.485L220.67 201.327V201.619C220.67 201.619 210.514 206.319 209.482 207.163C208.45 208.008 207.667 210.72 208.603 210.994Z" fill="#DD6A57"/>
<path d="M208.603 210.993C209.563 211.296 236.237 210.95 237.245 210.288C237.634 210.043 237.806 206.15 237.888 201.441V201.293C237.888 200.333 237.917 199.325 237.922 198.312C237.922 198.173 237.922 198.033 237.922 197.894L220.526 197.942L220.55 198.485L220.656 201.326V201.619C220.656 201.619 210.499 206.318 209.467 207.163C208.435 208.008 207.667 210.72 208.603 210.993Z" fill="#EBEBEB"/>
<path d="M208.603 210.989C209.083 211.147 216.336 211.128 223.426 210.989C224.866 210.96 226.267 210.931 227.621 210.893C232.675 210.754 236.856 210.547 237.221 210.293C237.586 210.039 237.782 206.266 237.859 201.653C237.859 201.586 237.859 201.523 237.859 201.456C237.859 201.389 237.859 201.355 237.859 201.307L220.651 201.336V201.634C220.651 201.634 210.49 206.333 209.462 207.173C208.435 208.013 207.667 210.691 208.603 210.989Z" fill="#1BB462"/>
<path d="M208.891 209.952C213.394 209.784 231.552 209.53 236.011 209.702C236.05 209.702 236.05 209.726 236.011 209.731C231.557 209.995 213.394 210.106 208.896 210.029C208.8 210.024 208.8 209.957 208.891 209.952Z" fill="#263238"/>
<path d="M218.746 201.398C220.512 201.048 222.682 201.288 224.026 202.536C224.078 202.584 224.026 202.656 223.954 202.642C222.254 202.116 220.503 201.775 218.731 201.624C218.705 201.617 218.683 201.602 218.667 201.58C218.651 201.558 218.644 201.532 218.646 201.505C218.647 201.479 218.658 201.453 218.676 201.434C218.695 201.414 218.719 201.402 218.746 201.398Z" fill="#263238"/>
<path d="M217.478 202.186C219.245 201.835 221.414 202.075 222.782 203.318C222.835 203.371 222.782 203.443 222.71 203.424C221.011 202.9 219.26 202.561 217.488 202.411C217.462 202.407 217.438 202.394 217.42 202.374C217.402 202.354 217.392 202.329 217.391 202.302C217.39 202.276 217.398 202.25 217.414 202.228C217.43 202.207 217.452 202.192 217.478 202.186Z" fill="#263238"/>
<path d="M216.206 202.973C217.973 202.618 220.142 202.862 221.515 204.106C221.568 204.154 221.515 204.23 221.438 204.211C219.741 203.687 217.991 203.348 216.221 203.198C216.194 203.195 216.17 203.182 216.152 203.163C216.133 203.143 216.122 203.118 216.121 203.092C216.119 203.065 216.127 203.039 216.142 203.017C216.158 202.995 216.181 202.98 216.206 202.973Z" fill="#263238"/>
<path d="M223.426 210.984C224.866 210.955 226.267 210.926 227.621 210.888C232.675 210.749 236.856 210.542 237.221 210.288C237.586 210.034 237.782 206.261 237.859 201.648C237.859 201.581 237.859 201.518 237.859 201.451C237.859 201.384 237.859 201.35 237.859 201.302C235.512 202.944 227.203 208.474 223.426 210.984Z" fill="#263238"/>
<path d="M219.49 201.384H238.718C238.718 201.384 234.845 156.48 234.998 155.693C235.19 154.69 236.323 150.144 237.835 144.206L239.347 138.288C240.787 132.706 242.362 126.6 243.739 121.286C245.808 113.323 247.421 107.141 247.421 107.141H231.101C231.101 107.141 229.181 113.16 226.81 120.994C222.907 133.723 217.69 151.234 217.181 155.506C216.374 162.379 219.49 201.384 219.49 201.384Z" fill="#455A64"/>
<path d="M220.32 198.105C223.258 198.043 222.413 198.019 225.35 197.99C226.79 197.99 236.232 197.894 237.576 198.115C237.605 198.115 237.605 198.173 237.576 198.177C236.232 198.398 226.79 198.317 225.35 198.302C222.413 198.273 223.258 198.249 220.32 198.192C220.286 198.187 220.286 198.105 220.32 198.105Z" fill="#263238"/>
<path d="M231.36 152.952C231.989 150.173 232.93 147.447 233.76 144.72C235.427 139.175 237.104 133.634 238.79 128.098C239.632 125.33 240.477 122.562 241.325 119.794C241.757 118.397 242.184 117 242.626 115.608C243.067 114.216 243.538 112.891 243.926 111.514C244.08 110.952 244.166 111.259 243.965 111.994C243.562 113.434 243.158 114.874 242.741 116.314C241.915 119.146 241.082 121.978 240.24 124.81C238.576 130.442 236.896 136.071 235.2 141.696L232.651 150.154C232.225 151.497 231.878 152.864 231.614 154.248C231.386 155.696 231.329 157.165 231.446 158.626C231.629 161.568 231.97 164.506 232.243 167.443C232.517 170.381 232.786 173.323 233.059 176.266C233.597 182.115 234.133 187.968 234.667 193.824C234.734 194.563 234.802 195.307 234.859 196.051C234.859 196.296 234.499 196.277 234.475 196.051C233.842 190.263 233.357 184.455 232.809 178.661C232.262 172.867 231.73 167.141 231.192 161.357C231.058 159.917 230.904 158.477 230.899 157.003C230.899 155.64 231.054 154.281 231.36 152.952Z" fill="#263238"/>
<path d="M232.973 107.141C234.106 115.896 236.261 132.302 237.835 144.206C241.512 129.782 247.435 107.141 247.435 107.141H232.973Z" fill="#263238"/>
<path d="M228.96 211.248C229.891 211.555 256.589 211.306 257.601 210.648C257.99 210.408 258.177 206.515 258.273 201.806V201.658C258.273 200.698 258.312 199.69 258.317 198.677C258.317 198.538 258.317 198.399 258.317 198.259C258.379 191.463 257.89 184.406 257.89 184.406L240.437 184.522L240.96 198.24V198.782L241.061 201.624V201.912C241.061 201.912 230.885 206.582 229.848 207.418C228.811 208.253 228.038 210.946 228.96 211.248Z" fill="#DD6A57"/>
<path d="M228.96 211.248C229.891 211.555 256.589 211.306 257.601 210.648C257.99 210.408 258.177 206.515 258.273 201.806V201.658C258.273 200.698 258.312 199.69 258.317 198.677C258.317 198.538 258.317 198.398 258.317 198.259L240.96 198.24V198.782L241.061 201.624V201.912C241.061 201.912 230.885 206.582 229.848 207.418C228.811 208.253 228.038 210.946 228.96 211.248Z" fill="#EBEBEB"/>
<path d="M228.96 211.248C229.891 211.555 256.589 211.305 257.602 210.648C257.99 210.408 258.178 206.515 258.274 201.806V201.657L241.051 201.629V201.917C241.051 201.917 230.875 206.587 229.838 207.422C228.802 208.257 228.038 210.945 228.96 211.248Z" fill="#1BB462"/>
<path d="M229.267 210.211C233.765 210.058 251.928 209.87 256.387 210.058C256.421 210.058 256.421 210.086 256.387 210.086C251.928 210.336 233.765 210.379 229.267 210.283C229.171 210.283 229.171 210.24 229.267 210.211Z" fill="#263238"/>
<path d="M239.146 201.696C240.917 201.346 243.082 201.6 244.426 202.848C244.478 202.896 244.426 202.968 244.349 202.954C242.652 202.421 240.903 202.073 239.131 201.917C239.102 201.915 239.075 201.901 239.055 201.879C239.036 201.857 239.026 201.828 239.028 201.799C239.03 201.77 239.043 201.743 239.065 201.723C239.087 201.704 239.116 201.694 239.146 201.696Z" fill="#263238"/>
<path d="M237.878 202.478C239.645 202.128 241.814 202.382 243.158 203.63C243.211 203.678 243.158 203.75 243.086 203.736C241.389 203.204 239.64 202.856 237.869 202.699C237.839 202.698 237.812 202.685 237.792 202.663C237.772 202.642 237.762 202.613 237.763 202.584C237.764 202.555 237.777 202.527 237.799 202.507C237.82 202.488 237.849 202.477 237.878 202.478Z" fill="#263238"/>
<path d="M236.606 203.256C238.373 202.91 240.542 203.165 241.886 204.413C241.939 204.461 241.886 204.533 241.814 204.518C240.131 203.989 238.397 203.642 236.64 203.482C236.612 203.482 236.585 203.472 236.564 203.454C236.543 203.436 236.529 203.411 236.525 203.383C236.521 203.356 236.527 203.328 236.542 203.305C236.557 203.281 236.58 203.264 236.606 203.256Z" fill="#263238"/>
<path d="M231.653 107.141C231.653 107.141 232.027 114.941 233.813 121.114C233.957 121.622 234.11 122.126 234.293 122.606C235.927 123.263 237.498 124.067 238.987 125.006C238.987 125.006 239.174 131.28 239.362 138.274C239.573 146.098 239.789 154.819 239.746 156.667C239.582 163.589 240.61 201.653 240.61 201.653L259.81 201.73C259.81 201.73 256.334 159.226 256.358 156.691C256.392 152.616 255.427 134.611 254.678 121.464C254.198 113.366 253.848 107.126 253.848 107.126L231.653 107.141Z" fill="#455A64"/>
<path d="M241.253 198.24C244.19 198.187 243.346 198.163 246.283 198.144C247.723 198.144 257.165 198.096 258.509 198.326C258.516 198.326 258.524 198.329 258.529 198.335C258.534 198.34 258.537 198.348 258.537 198.355C258.537 198.363 258.534 198.37 258.529 198.376C258.524 198.381 258.516 198.384 258.509 198.384C257.165 198.6 247.718 198.48 246.283 198.456C243.346 198.418 244.19 198.398 241.253 198.322C241.244 198.319 241.237 198.313 241.232 198.306C241.226 198.299 241.224 198.29 241.224 198.281C241.224 198.272 241.226 198.263 241.232 198.256C241.237 198.249 241.244 198.243 241.253 198.24Z" fill="#263238"/>
<path d="M252.24 109.92C252.595 120.643 252.97 131.366 253.45 142.08C253.93 152.794 254.578 163.589 255.48 174.317C255.96 180.312 256.44 188.746 257.102 194.726C257.102 194.765 257.045 194.779 257.04 194.726C255.638 184.09 254.861 170.933 254.16 160.229C253.459 149.525 253.008 138.802 252.643 128.069C252.437 122.002 252.278 115.939 252.096 109.872C252.106 109.834 252.235 109.843 252.24 109.92Z" fill="#263238"/>
<path d="M233.477 122.146C235.389 122.943 237.229 123.907 238.973 125.026C238.988 125.033 239 125.047 239.005 125.063C239.01 125.079 239.009 125.097 239.002 125.112C238.994 125.127 238.981 125.139 238.964 125.144C238.948 125.15 238.93 125.148 238.915 125.141C237.062 124.238 235.166 123.37 233.366 122.371C233.336 122.357 233.314 122.331 233.303 122.299C233.292 122.268 233.294 122.233 233.309 122.203C233.323 122.173 233.349 122.15 233.381 122.14C233.412 122.129 233.447 122.131 233.477 122.146Z" fill="#263238"/>
<path d="M232.32 113.52C232.474 114.346 232.67 115.162 232.848 115.978C233.026 116.794 233.141 117.533 233.328 118.291C233.497 119.02 233.87 119.686 234.403 120.211C234.706 120.49 235.037 120.739 235.363 120.994L235.906 121.406C235.882 121.296 235.862 121.186 235.843 121.075L235.685 120.139C235.565 119.443 235.454 118.747 235.349 118.051C235.142 116.683 234.95 115.301 234.662 113.947C234.662 113.936 234.667 113.925 234.675 113.917C234.683 113.909 234.694 113.904 234.706 113.904C234.717 113.904 234.728 113.909 234.736 113.917C234.744 113.925 234.749 113.936 234.749 113.947C235.09 115.286 235.464 116.616 235.762 117.97C235.906 118.632 236.424 121.906 236.448 122.141C236.472 122.376 236.491 122.621 236.501 122.861C236.534 123.104 236.534 123.352 236.501 123.595C236.501 123.653 236.414 123.643 236.39 123.595C236.293 123.366 236.223 123.126 236.184 122.88C236.121 122.648 236.07 122.412 236.03 122.174L235.987 121.91C235.666 121.714 235.368 121.454 235.066 121.238C234.763 121.022 234.408 120.758 234.106 120.514C233.537 120.034 233.127 119.393 232.93 118.675C232.729 117.903 232.601 117.114 232.546 116.318C232.44 115.392 232.363 114.456 232.234 113.525C232.234 113.486 232.32 113.462 232.32 113.52Z" fill="#263238"/>
<path d="M219.12 70.5602L221.434 83.1026C221.544 83.477 221.342 83.7602 220.987 83.7362L214.618 83.3282C214.424 83.2999 214.242 83.2178 214.093 83.0914C213.943 82.965 213.833 82.7992 213.773 82.613L211.459 70.0658C211.349 69.6962 211.55 69.413 211.906 69.437L218.275 69.845C218.469 69.8722 218.651 69.9538 218.801 70.0804C218.95 70.207 219.061 70.3733 219.12 70.5602Z" fill="#37474F"/>
<path d="M218.362 70.4784L220.68 83.04C220.79 83.4096 220.589 83.6928 220.234 83.6688L213.859 83.2608C213.666 83.2333 213.484 83.1514 213.336 83.0248C213.187 82.8982 213.077 82.7321 213.019 82.5456L210.72 69.9888C210.61 69.6144 210.811 69.336 211.166 69.3552L217.541 69.768C217.73 69.7979 217.908 69.8803 218.053 70.0059C218.198 70.1315 218.305 70.2951 218.362 70.4784Z" fill="#455A64"/>
<path d="M216.581 70.9296C216.576 71.0369 216.603 71.1432 216.659 71.2351C216.715 71.3269 216.797 71.4 216.894 71.4452C216.992 71.4905 217.1 71.5057 217.207 71.4891C217.313 71.4725 217.412 71.4247 217.491 71.3518C217.569 71.2789 217.625 71.1842 217.65 71.0797C217.675 70.9753 217.669 70.8657 217.631 70.7649C217.594 70.6642 217.528 70.5768 217.441 70.5138C217.353 70.4508 217.25 70.4151 217.142 70.4112C217.071 70.408 217 70.4189 216.934 70.4433C216.867 70.4676 216.806 70.505 216.753 70.5532C216.701 70.6014 216.659 70.6595 216.629 70.7241C216.6 70.7887 216.583 70.8586 216.581 70.9296Z" fill="#263238"/>
<path d="M238.454 90.5472C234.422 98.0304 225.768 107.558 222.418 107.414C220.824 107.347 217.954 107.573 215.962 105.624C211.618 101.376 208.224 93.5184 207.691 89.0976C207.499 87.528 215.261 84.5712 216.307 85.9008C218.76 89.016 221.486 95.0208 221.952 95.0208C223.67 94.9824 230.688 89.7696 235.589 86.0976C241.536 81.6 240.062 87.5664 238.454 90.5472Z" fill="#DD6A57"/>
<path d="M207.945 81.0434C208.905 77.9282 209.654 77.2754 209.078 74.2082C208.704 72.197 209.827 71.093 211.147 72.7682C213.307 75.5042 212.889 79.7906 212.318 81.2306L207.945 81.0434Z" fill="#DD6A57"/>
<path d="M207.984 90.4754C207.984 90.4754 206.818 85.9922 207.528 82.5698C208.008 80.2034 209.669 75.1682 216.499 72.845C218.122 72.293 220.819 72.6578 218.501 74.5202C216.854 75.8402 215.41 76.1809 214.589 77.1265C214.589 77.1265 217.973 77.9954 218.462 79.6418C218.886 81.0812 219.207 82.5489 219.422 84.0338C219.159 84.1351 218.89 84.2201 218.616 84.2882C218.616 84.2882 219.029 85.8434 217.776 87.9458L207.984 90.4754Z" fill="#DD6A57"/>
<path d="M208.358 80.3856C209.371 79.6176 211.541 78.0336 213.763 77.352C216.235 76.5984 221.203 75.8064 221.741 77.64C222.134 78.9792 220.267 79.4496 220.267 79.4496C220.267 79.4496 222.389 79.5552 222.48 80.8464C222.562 82.0224 221.093 82.2864 221.093 82.2864C221.093 82.2864 222.37 82.5744 222.23 83.7264C222.067 85.1088 219.422 84.2832 218.045 85.536C217.738 85.824 208.358 80.3856 208.358 80.3856Z" fill="#DD6A57"/>
<path d="M214.128 80.0978C216.045 79.256 218.173 79.0166 220.229 79.4114C220.282 79.4114 220.296 79.469 220.229 79.469C218.171 79.4385 216.118 79.6577 214.114 80.1218C214.114 80.1218 214.114 80.1026 214.128 80.0978Z" fill="#263238"/>
<path d="M214.963 82.56C216.94 81.9047 219.058 81.7936 221.093 82.2384C221.146 82.2384 221.16 82.3008 221.093 82.296C219.04 82.1599 216.979 82.2565 214.949 82.584C214.949 82.584 214.949 82.56 214.963 82.56Z" fill="#263238"/>
<path d="M207.442 92.2993C207.442 92.2993 212.981 104.894 216.509 106.512C220.037 108.13 222.211 107.952 223.565 107.803C224.082 107.707 224.573 107.5 225.005 107.198C228.782 104.798 235.795 95.9761 238.723 90.9553C240.917 87.1873 240.888 83.6593 237.821 84.6289C236.778 85.0056 235.805 85.5521 234.941 86.2465C229.181 90.5665 222.504 94.6369 222.206 94.4593C221.909 94.2817 219.01 89.0785 219.01 89.0785L207.442 92.2993Z" fill="#1BB462"/>
<path d="M221.731 97.0994C221.794 97.6659 221.711 98.2391 221.491 98.765C221.453 98.4831 221.453 98.1973 221.491 97.9154C221.531 97.6331 221.612 97.3582 221.731 97.0994Z" fill="white"/>
<path d="M214.502 100.214C214.541 100.496 214.541 100.782 214.502 101.064C214.465 101.346 214.387 101.62 214.272 101.88C214.233 101.598 214.233 101.312 214.272 101.03C214.311 100.749 214.388 100.475 214.502 100.214Z" fill="white"/>
<path d="M227.246 103.253C227.285 103.535 227.285 103.821 227.246 104.103C227.21 104.384 227.132 104.659 227.016 104.919C226.947 104.352 227.03 103.777 227.256 103.253H227.246Z" fill="white"/>
<path d="M230.746 90.8784C230.784 91.1603 230.784 91.4461 230.746 91.728C230.709 92.0098 230.631 92.2847 230.515 92.544C230.477 92.2621 230.477 91.9763 230.515 91.6944C230.552 91.4128 230.63 91.138 230.746 90.8784Z" fill="white"/>
<path d="M231.874 95.9522C231.307 96.0148 230.734 95.9322 230.208 95.7122C230.49 95.6737 230.776 95.6737 231.058 95.7122C231.34 95.7526 231.614 95.8334 231.874 95.9522Z" fill="white"/>
<path d="M217.123 97.44C216.841 97.4785 216.555 97.4785 216.274 97.44C215.991 97.4043 215.714 97.3283 215.453 97.2144C215.734 97.1711 216.021 97.1711 216.302 97.2144C216.585 97.25 216.862 97.326 217.123 97.44Z" fill="white"/>
<path d="M224.64 101.837C224.358 101.88 224.072 101.88 223.79 101.837C223.509 101.802 223.234 101.726 222.974 101.611C223.541 101.544 224.114 101.625 224.64 101.846V101.837Z" fill="white"/>
<path d="M210.365 93.0721C210.083 93.113 209.797 93.113 209.515 93.0721C209.232 93.0364 208.956 92.9605 208.694 92.8465C208.976 92.808 209.262 92.808 209.544 92.8465C209.827 92.8823 210.103 92.9583 210.365 93.0721Z" fill="white"/>
<path d="M217.666 105.965C217.098 106.032 216.522 105.951 215.995 105.73C216.277 105.686 216.563 105.686 216.845 105.73C217.128 105.768 217.405 105.847 217.666 105.965Z" fill="white"/>
<path d="M239.347 85.0418C239.58 85.1448 239.825 85.2158 240.077 85.253C240.039 85.1735 239.994 85.098 239.942 85.0274C239.744 85.0058 239.544 85.0107 239.347 85.0418Z" fill="white"/>
<path d="M225.326 94.0034C225.55 94.1784 225.749 94.3836 225.917 94.613C226.092 94.8374 226.232 95.0865 226.334 95.3522C226.108 95.1797 225.909 94.9742 225.744 94.7426C225.567 94.5195 225.426 94.2701 225.326 94.0034Z" fill="white"/>
<path d="M218.4 101.045C218.625 101.22 218.826 101.425 218.995 101.655C219.169 101.88 219.309 102.129 219.413 102.394C219.185 102.221 218.985 102.016 218.818 101.784C218.644 101.559 218.503 101.31 218.4 101.045Z" fill="white"/>
<path d="M214.45 91.7136C214.675 91.8869 214.875 92.0904 215.045 92.3184C215.218 92.5438 215.359 92.7927 215.462 93.0576C215.235 92.885 215.034 92.6796 214.867 92.448C214.695 92.2237 214.554 91.9765 214.45 91.7136Z" fill="white"/>
<path d="M229.704 100.167C229.928 100.342 230.127 100.547 230.294 100.776C230.469 101.001 230.61 101.25 230.712 101.515C230.266 101.159 229.919 100.695 229.704 100.167Z" fill="white"/>
<path d="M234.922 88.3201C235.148 88.492 235.348 88.6957 235.517 88.9249C235.69 89.1503 235.831 89.3991 235.934 89.6641C235.709 89.4908 235.509 89.2873 235.339 89.0593C235.168 88.8326 235.027 88.584 234.922 88.3201Z" fill="white"/>
<path d="M235.262 94.1136C235.613 93.6634 236.077 93.314 236.606 93.1008C236.434 93.3273 236.231 93.5277 236.002 93.696C235.775 93.8675 235.526 94.008 235.262 94.1136Z" fill="white"/>
<path d="M210.754 96.888C210.926 96.6605 211.132 96.4599 211.363 96.2928C211.589 96.1194 211.837 95.9788 212.102 95.8752C211.748 96.3244 211.284 96.6735 210.754 96.888Z" fill="white"/>
<path d="M218.294 94.6176C218.466 94.3926 218.67 94.1938 218.899 94.0272C219.124 93.8523 219.373 93.7115 219.638 93.6096C219.465 93.8334 219.261 94.0321 219.034 94.2C218.809 94.3742 218.56 94.5149 218.294 94.6176Z" fill="white"/>
<path d="M226.598 99.2687C226.77 99.0438 226.974 98.8449 227.203 98.6783C227.428 98.5034 227.677 98.3627 227.942 98.2607C227.769 98.4845 227.565 98.6832 227.338 98.8511C227.111 99.0236 226.863 99.1641 226.598 99.2687Z" fill="white"/>
<path d="M221.602 106.205C221.777 105.981 221.982 105.782 222.211 105.615C222.434 105.438 222.684 105.297 222.95 105.197C222.777 105.422 222.571 105.621 222.341 105.787C222.116 105.962 221.867 106.103 221.602 106.205Z" fill="white"/>
<path opacity="0.1" d="M225.024 107.198C228.801 104.798 235.814 95.9761 238.742 90.9553C240.936 87.1873 240.907 83.6593 237.84 84.6289C236.16 87.5905 228.701 100.56 225.024 107.198Z" fill="black"/>
<path d="M208.853 94.6176C209.275 94.4112 213.254 93.1104 214.133 92.8464C215.011 92.5824 218.544 91.4688 219.466 91.272C219.472 91.2745 219.477 91.2788 219.481 91.2843C219.485 91.2899 219.487 91.2965 219.487 91.3032C219.487 91.3099 219.485 91.3165 219.481 91.322C219.477 91.3276 219.472 91.3319 219.466 91.3344C218.602 91.6992 215.03 92.832 214.147 93.12C213.264 93.408 209.309 94.608 208.867 94.68C208.829 94.6848 208.824 94.632 208.853 94.6176Z" fill="#263238"/>
<path d="M228 116.678C228.384 117.158 255.466 118.848 255.614 118.685C256.022 118.253 249.701 88.4976 243.912 83.2368C242.669 82.1088 238.877 82.992 237.83 83.8224C237.173 84.3456 235.469 87.9216 234.274 90.9024C231.893 96.8736 227.659 116.256 228 116.678Z" fill="#263238"/>
<path d="M238.526 82.6753C237.365 83.3473 236.073 87.3457 238.449 88.1809C240.825 89.0161 243.537 85.4257 244.013 84.2161C244.488 83.0065 241.027 81.2305 238.526 82.6753Z" fill="#1BB462"/>
<path d="M238.689 87.6434C240.182 88.013 242.769 85.7522 243.806 83.9138C243.873 83.7842 243.696 82.445 243.552 80.8082C243.47 79.8146 243.398 78.7058 243.408 77.6882L237.019 79.1714C237.37 80.4469 237.562 81.7609 237.59 83.0834C237.589 83.2224 237.573 83.3608 237.542 83.4962C237.544 83.5202 237.544 83.5443 237.542 83.5682C237.398 84.3602 237.249 87.2834 238.689 87.6434Z" fill="#DD6A57"/>
<path d="M243.106 77.76C242.894 79.032 241.882 83.568 238.19 83.616C237.97 83.6172 237.751 83.6028 237.533 83.5728C237.53 83.5489 237.53 83.5247 237.533 83.5008C237.561 83.365 237.577 83.2268 237.581 83.088C237.546 81.7653 237.351 80.4517 237 79.176L243.106 77.76Z" fill="#263238"/>
<path d="M243.73 69.7535C244.57 71.9615 243.811 78.5615 242.29 80.1215C240.106 82.3823 236.309 82.8383 234.331 80.1599C232.411 77.5679 233.554 68.9855 235.258 67.5455C237.782 65.4239 242.491 66.4847 243.73 69.7535Z" fill="#DD6A57"/>
<path d="M237.763 74.155C237.763 74.155 237.797 74.155 237.792 74.1982C237.73 74.6398 237.73 75.1582 238.118 75.3502C238.118 75.3502 238.118 75.379 238.118 75.3742C237.629 75.2542 237.634 74.5678 237.763 74.155Z" fill="#263238"/>
<path d="M238.209 73.7329C238.929 73.7617 238.829 75.2017 238.161 75.1729C237.494 75.1441 237.6 73.7137 238.209 73.7329Z" fill="#263238"/>
<path d="M235.262 73.9919C235.262 73.9919 235.229 73.9919 235.224 74.0303C235.224 74.4767 235.114 74.9903 234.701 75.1055V75.1343C235.2 75.0959 235.32 74.3999 235.262 73.9919Z" fill="#263238"/>
<path d="M234.898 73.4977C234.182 73.3969 234.029 74.8321 234.686 74.9377C235.344 75.0433 235.498 73.5889 234.898 73.4977Z" fill="#263238"/>
<path d="M238.824 73.1182C238.632 73.051 238.464 72.9646 238.282 72.883C238.078 72.8255 237.899 72.7023 237.773 72.5326C237.743 72.4723 237.734 72.404 237.747 72.3381C237.76 72.2722 237.795 72.2124 237.845 72.1678C237.961 72.1004 238.094 72.0649 238.229 72.0649C238.364 72.0649 238.496 72.1004 238.613 72.1678C238.873 72.2621 239.089 72.4505 239.218 72.6958C239.237 72.7519 239.241 72.8123 239.229 72.8704C239.216 72.9286 239.189 72.9822 239.148 73.0257C239.108 73.0692 239.056 73.1008 238.999 73.1171C238.942 73.1334 238.881 73.1338 238.824 73.1182Z" fill="#263238"/>
<path d="M234.379 73.056C234.574 73.0306 234.768 72.9953 234.96 72.9504C235.171 72.9391 235.373 72.86 235.536 72.7248C235.577 72.6711 235.6 72.6053 235.6 72.5376C235.6 72.4699 235.577 72.4041 235.536 72.3504C235.441 72.2555 235.322 72.1876 235.192 72.1538C235.062 72.1201 234.926 72.1217 234.797 72.1584C234.522 72.1905 234.268 72.324 234.086 72.5328C234.048 72.5834 234.024 72.6443 234.02 72.7079C234.015 72.7715 234.029 72.8351 234.061 72.8908C234.092 72.9464 234.138 72.9917 234.195 73.0211C234.252 73.0505 234.316 73.0626 234.379 73.056Z" fill="#263238"/>
<path d="M237.84 76.9873C237.714 77.1552 237.555 77.2956 237.372 77.3996C237.19 77.5036 236.988 77.5691 236.779 77.5921C236.597 77.616 236.414 77.616 236.232 77.5921H236.126L236.03 77.5681C236.007 77.5625 235.986 77.549 235.971 77.5298C235.956 77.5105 235.948 77.4868 235.949 77.4625C235.946 77.4482 235.946 77.4336 235.949 77.4193V77.3809C235.949 77.0353 236.035 76.5169 236.035 76.5169C235.906 76.5697 235.243 76.8145 235.267 76.6369C235.416 75.0899 235.721 73.562 236.179 72.0769C236.182 72.0684 236.188 72.061 236.195 72.0558C236.202 72.0506 236.211 72.0479 236.22 72.0479C236.229 72.0479 236.238 72.0506 236.245 72.0558C236.252 72.061 236.258 72.0684 236.261 72.0769C236.131 73.5169 235.752 74.9041 235.598 76.3393C235.833 76.2456 236.081 76.1889 236.333 76.1713C236.381 76.1713 236.179 77.1745 236.184 77.3281C236.463 77.3766 236.75 77.3684 237.026 77.3041C237.302 77.2398 237.563 77.1206 237.792 76.9537C237.835 76.9201 237.869 76.9537 237.84 76.9873Z" fill="#263238"/>
<path d="M236.491 77.501C236.681 77.7417 236.931 77.9286 237.216 78.0434C237.372 78.0921 237.54 78.0921 237.696 78.0434C238.046 77.9474 238.051 77.621 237.984 77.3426C237.944 77.1958 237.888 77.054 237.816 76.9202C237.447 77.2498 236.983 77.4533 236.491 77.501Z" fill="#263238"/>
<path d="M237.216 78.0433C237.372 78.092 237.54 78.092 237.696 78.0433C238.046 77.9473 238.051 77.6209 237.984 77.3425C237.795 77.3553 237.617 77.4316 237.478 77.5589C237.338 77.6861 237.246 77.8569 237.216 78.0433Z" fill="#F392B9"/>
<path d="M242.261 74.9712C242.261 74.9712 243.633 72.7919 244.617 73.2719C245.601 73.7519 244.617 76.8671 243.528 77.3375C243.391 77.4081 243.241 77.4501 243.087 77.4611C242.933 77.4722 242.779 77.452 242.633 77.4017C242.487 77.3515 242.353 77.2723 242.239 77.1689C242.125 77.0654 242.032 76.94 241.968 76.8L242.261 74.9712Z" fill="#DD6A57"/>
<path d="M244.32 74.1602C244.32 74.1602 244.32 74.1602 244.32 74.189C243.967 74.3856 243.659 74.6544 243.417 74.9777C243.175 75.3011 243.003 75.6718 242.914 76.0658C242.955 75.9851 243.013 75.9143 243.084 75.8581C243.155 75.802 243.237 75.7618 243.325 75.7404C243.413 75.719 243.504 75.7168 243.593 75.734C243.682 75.7512 243.766 75.7874 243.84 75.8402C243.84 75.8402 243.84 75.8882 243.84 75.8834C243.7 75.8455 243.551 75.8519 243.414 75.9017C243.278 75.9515 243.16 76.0424 243.077 76.1618C242.94 76.3629 242.825 76.5787 242.736 76.805C242.702 76.8818 242.573 76.8482 242.597 76.7666C242.53 75.7538 243.245 74.309 244.32 74.1602Z" fill="#263238"/>
<path d="M234.49 70.4256C236.645 71.7936 239.443 69.5088 239.443 69.5088C239.64 69.9666 239.981 70.3477 240.414 70.5945C240.847 70.8413 241.349 70.9404 241.843 70.8768C241.843 70.8768 242.381 74.424 243.322 74.3856C244.762 74.328 245.021 69.4512 244.536 68.5152C244.346 68.2168 244.096 67.9611 243.802 67.7645C243.507 67.5678 243.176 67.4344 242.827 67.3728C242.673 66.7995 242.308 66.3057 241.805 65.9904C240.802 65.28 237.485 66.4032 237.485 66.4032C237.275 65.9596 236.965 65.5716 236.578 65.2704C236.485 65.195 236.378 65.1391 236.263 65.1062C236.149 65.0732 236.029 65.0639 235.91 65.0787C235.792 65.0935 235.677 65.1322 235.574 65.1923C235.471 65.2525 235.381 65.333 235.31 65.4288C235.499 65.6864 235.627 65.9834 235.685 66.2976C235.891 67.3344 235.037 67.3632 235.013 66.4176C234.991 66.0631 235.097 65.7125 235.31 65.4288C234.869 64.8288 234.173 64.6512 233.77 64.9968C232.992 65.6256 232.694 69.288 234.49 70.4256Z" fill="#263238"/>
<path d="M246.394 85.6415C254.506 94.0847 266.333 115.464 267.792 118.531C268.786 120.614 257.904 126.101 257.443 124.584C256.853 122.664 247.363 98.7167 244.858 89.6879C243.466 84.7103 244.718 83.8943 246.394 85.6415Z" fill="#DD6A57"/>
<path d="M256.93 123.154C257.309 124.19 258.6 128.597 259.507 129.144C260.414 129.691 265.152 129.576 267.542 129.576C269.933 129.576 270.422 128.909 270.365 128.083C270.307 127.258 265.31 127.123 265.31 127.123C265.31 127.123 272.006 129.043 273.691 129.36C275.376 129.677 279.259 130.651 279.821 129.254C280.07 128.626 279.01 127.987 279.01 127.987C279.01 127.987 280.637 128.467 280.896 127.651C281.194 126.73 279.898 126.211 279.898 126.211C279.898 126.211 280.915 126.413 280.939 125.664C280.992 123.984 274.622 123.158 274.622 123.158C274.622 123.158 279.499 125.534 279.653 124.166C279.874 122.246 269.875 120.192 268.834 119.366C268.154 118.793 267.588 118.096 267.168 117.312L256.93 123.154Z" fill="#DD6A57"/>
<path d="M270.326 128.501C270.343 128.384 270.331 128.265 270.292 128.154C270.253 128.043 270.187 127.943 270.101 127.862C269.928 127.704 269.73 127.576 269.515 127.483C269.073 127.295 268.615 127.147 268.147 127.041C267.187 126.801 266.227 126.633 265.267 126.384C266.261 126.369 267.253 126.481 268.219 126.715C268.712 126.828 269.187 127.008 269.63 127.253C269.859 127.379 270.059 127.553 270.216 127.761C270.297 127.864 270.35 127.987 270.369 128.116C270.389 128.246 270.374 128.378 270.326 128.501Z" fill="#263238"/>
<path d="M279.01 127.968C278.318 127.8 277.642 127.603 276.965 127.411C276.288 127.219 275.611 127.003 274.934 126.802L272.918 126.168C272.246 125.957 271.574 125.75 270.893 125.549C271.598 125.623 272.298 125.748 272.986 125.923C273.677 126.077 274.358 126.278 275.035 126.48C275.712 126.682 276.384 126.912 277.042 127.166C277.699 127.421 278.366 127.68 279.01 127.968Z" fill="#263238"/>
<path d="M272.51 123.874C273.156 123.916 273.798 124.006 274.43 124.143C275.069 124.269 275.7 124.429 276.322 124.623C276.944 124.816 277.555 125.045 278.15 125.309C278.749 125.564 279.328 125.863 279.883 126.202C279.269 125.986 278.669 125.751 278.054 125.549C277.44 125.347 276.835 125.131 276.221 124.944C275.606 124.757 274.987 124.57 274.368 124.387C273.749 124.205 273.12 124.047 272.51 123.874Z" fill="#263238"/>
<path d="M273.494 122.275C275.602 122.463 277.63 123.165 279.403 124.32C278.41 123.965 277.45 123.595 276.466 123.264C275.482 122.933 274.498 122.597 273.494 122.275Z" fill="#263238"/>
<path d="M244.958 92.0305C246.878 100.306 256.08 122.942 256.08 122.942L264.345 118.958L268.512 116.947C268.512 116.947 254.318 94.7713 248.52 87.5185C248.069 86.9617 247.661 86.4817 247.286 86.0785C243.691 82.2385 243.47 85.6465 244.958 92.0305Z" fill="#1BB462"/>
<path d="M255.394 120.48C260.256 117.653 265.795 115.425 266.731 114.969C266.774 114.969 266.803 115.022 266.76 115.041C265.8 115.445 259.762 118.675 255.422 120.557C255.36 120.576 255.36 120.48 255.394 120.48Z" fill="#263238"/>
<path d="M253.646 96.8931C253.685 97.175 253.685 97.4608 253.646 97.7427C253.611 98.0242 253.535 98.2991 253.421 98.5587C253.377 98.2787 253.377 97.9938 253.421 97.7139C253.456 97.4309 253.532 97.1545 253.646 96.8931Z" fill="white"/>
<path d="M249.825 104.16C249.864 104.442 249.864 104.728 249.825 105.01C249.79 105.291 249.714 105.566 249.6 105.826C249.557 105.544 249.557 105.257 249.6 104.976C249.635 104.694 249.711 104.419 249.825 104.16Z" fill="white"/>
<path d="M259.454 115.637C259.493 115.917 259.493 116.201 259.454 116.482C259.417 116.765 259.339 117.041 259.224 117.302C259.185 117.02 259.185 116.735 259.224 116.453C259.261 116.171 259.338 115.896 259.454 115.637Z" fill="white"/>
<path d="M259.162 103.051C259.205 103.331 259.205 103.616 259.162 103.896C259.126 104.179 259.05 104.455 258.936 104.717C258.895 104.435 258.895 104.149 258.936 103.867C258.971 103.586 259.047 103.311 259.162 103.051Z" fill="white"/>
<path d="M262.08 108.355C262.118 108.637 262.118 108.923 262.08 109.205C262.044 109.488 261.968 109.764 261.854 110.026C261.811 109.744 261.811 109.458 261.854 109.176C261.89 108.893 261.966 108.617 262.08 108.355Z" fill="white"/>
<path d="M249.12 88.968C248.838 89.0089 248.552 89.0089 248.27 88.968C247.989 88.933 247.714 88.857 247.454 88.7424C247.735 88.704 248.019 88.704 248.299 88.7424C248.582 88.7782 248.859 88.8542 249.12 88.968Z" fill="white"/>
<path d="M249.038 97.2144C248.472 97.277 247.899 97.1944 247.373 96.9744C247.655 96.9359 247.94 96.9359 248.222 96.9744C248.504 97.0148 248.779 97.0956 249.038 97.2144Z" fill="white"/>
<path d="M256.531 101.635C256.251 101.674 255.967 101.674 255.686 101.635C255.403 101.598 255.127 101.52 254.865 101.405C255.147 101.364 255.433 101.364 255.715 101.405C255.997 101.442 256.272 101.519 256.531 101.635Z" fill="white"/>
<path d="M264 118.334C263.72 118.373 263.435 118.373 263.155 118.334C262.873 118.296 262.597 118.22 262.334 118.109C262.616 118.065 262.902 118.065 263.184 118.109C263.465 118.144 263.74 118.22 264 118.334Z" fill="white"/>
<path d="M256.2 118.613C255.92 118.651 255.635 118.651 255.355 118.613C255.072 118.577 254.796 118.501 254.534 118.387C254.816 118.344 255.102 118.344 255.384 118.387C255.665 118.422 255.94 118.498 256.2 118.613Z" fill="white"/>
<path d="M253.92 110.357C253.638 110.395 253.352 110.395 253.07 110.357C252.789 110.32 252.514 110.242 252.254 110.126C252.536 110.088 252.822 110.088 253.104 110.126C253.385 110.166 253.66 110.243 253.92 110.357Z" fill="white"/>
<path d="M261.331 112.608C261.555 112.783 261.754 112.988 261.922 113.218C262.098 113.441 262.239 113.69 262.339 113.957C262.114 113.783 261.915 113.578 261.749 113.347C261.574 113.123 261.433 112.874 261.331 112.608Z" fill="white"/>
<path d="M250.31 100.843C250.534 101.017 250.733 101.22 250.901 101.448C251.074 101.674 251.215 101.922 251.318 102.187C251.093 102.015 250.895 101.812 250.728 101.582C250.552 101.359 250.411 101.109 250.31 100.843Z" fill="white"/>
<path d="M246.37 91.5073C246.595 91.6811 246.793 91.8864 246.96 92.1169C247.135 92.3413 247.276 92.5904 247.378 92.8561C247.152 92.6824 246.954 92.4771 246.787 92.2465C246.61 92.0234 246.469 91.774 246.37 91.5073Z" fill="white"/>
<path d="M257.76 107.011C257.986 107.183 258.187 107.387 258.355 107.616C258.527 107.843 258.667 108.091 258.773 108.355C258.546 108.183 258.346 107.98 258.177 107.75C258.005 107.524 257.864 107.276 257.76 107.011Z" fill="white"/>
<path d="M254.371 114.288C254.597 114.463 254.797 114.668 254.966 114.898C255.14 115.123 255.28 115.372 255.384 115.637C254.935 115.283 254.586 114.818 254.371 114.288Z" fill="white"/>
<path d="M264.605 115.08C264.959 114.631 265.424 114.282 265.954 114.067C265.6 114.516 265.135 114.865 264.605 115.08Z" fill="white"/>
<path d="M257.76 121.061C257.934 120.836 258.139 120.637 258.369 120.471C258.593 120.294 258.842 120.153 259.109 120.053C258.935 120.278 258.73 120.477 258.499 120.643C258.275 120.818 258.026 120.959 257.76 121.061Z" fill="white"/>
<path d="M257.073 112.368C257.427 111.919 257.892 111.57 258.422 111.355C258.247 111.581 258.042 111.781 257.813 111.95C257.587 112.124 257.338 112.265 257.073 112.368Z" fill="white"/>
<path d="M250.214 94.4159C250.386 94.1894 250.59 93.989 250.819 93.8207C251.045 93.6472 251.293 93.5066 251.558 93.4031C251.386 93.6306 251.18 93.8312 250.949 93.9983C250.724 94.1707 250.477 94.3112 250.214 94.4159Z" fill="white"/>
<path d="M244.512 87.5279C244.684 87.3015 244.888 87.101 245.117 86.9327C245.343 86.7602 245.592 86.6197 245.856 86.5151C245.684 86.7416 245.48 86.942 245.251 87.1103C245.024 87.2818 244.776 87.4223 244.512 87.5279Z" fill="white"/>
<path d="M253.522 106.003C253.695 105.778 253.898 105.578 254.126 105.408C254.353 105.237 254.602 105.096 254.866 104.99C254.694 105.217 254.49 105.417 254.261 105.586C254.034 105.757 253.785 105.898 253.522 106.003Z" fill="white"/>
</svg>
