<svg width="14" height="14" viewBox="0 0 14 14" fill="none" xmlns="http://www.w3.org/2000/svg">
<path d="M4.91667 6.16658C6.525 6.16658 7.83333 7.47492 7.83333 9.08325C7.83333 10.6916 6.525 11.9999 4.91667 11.9999C3.30833 11.9999 2 10.6916 2 9.08325C2 7.47492 3.30833 6.16658 4.91667 6.16658ZM4.91667 4.49992C2.38333 4.49992 0.333334 6.54992 0.333334 9.08325C0.333334 11.6166 2.38333 13.6666 4.91667 13.6666C7.45 13.6666 9.5 11.6166 9.5 9.08325C9.5 8.11659 9.2 7.22492 8.69167 6.48325L12 3.18325V5.33325H13.6667V0.333252H8.66667V1.99992H10.8167L7.50833 5.30825C6.775 4.79992 5.88333 4.49992 4.91667 4.49992Z" fill="#A0A2A7"/>
</svg>
