<svg width="28" height="22" viewBox="0 0 28 22" fill="none" xmlns="http://www.w3.org/2000/svg">
<path d="M24.6667 21.6666H3.33333C2.6484 21.6871 1.98325 21.4354 1.48347 20.9666C0.983684 20.4978 0.689988 19.8501 0.666666 19.1652V2.83323C0.689985 2.14851 0.983726 1.50093 1.48355 1.03235C1.98337 0.563768 2.64853 0.312374 3.33333 0.333233H24.6667C25.3515 0.312374 26.0166 0.563768 26.5164 1.03235C27.0163 1.50093 27.31 2.14851 27.3333 2.83323V19.1666C27.3097 19.8512 27.0158 20.4985 26.5161 20.967C26.0163 21.4356 25.3514 21.6871 24.6667 21.6666ZM3.33333 2.9999V18.9852L24.6667 18.9999V3.01457L3.33333 2.9999ZM15.9067 16.3332H6C6.09803 15.2293 6.62045 14.2065 7.45733 13.4799C8.3891 12.5555 9.64108 12.0255 10.9533 11.9999C12.2653 12.0266 13.5173 12.5559 14.4493 13.4799C15.286 14.2066 15.8084 15.2294 15.9067 16.3332ZM22 14.9999H18V12.3332H22V14.9999ZM10.9533 10.9999C10.5998 11.0122 10.2476 10.9516 9.91849 10.8219C9.5894 10.6923 9.2905 10.4963 9.04038 10.2462C8.79027 9.99607 8.59429 9.69717 8.46462 9.36808C8.33495 9.03899 8.27438 8.68674 8.28667 8.33323C8.27458 7.97978 8.33529 7.62762 8.46502 7.29862C8.59476 6.96961 8.79075 6.6708 9.04082 6.42072C9.2909 6.17065 9.58971 5.97466 9.91872 5.84492C10.2477 5.71519 10.5999 5.65448 10.9533 5.66657C11.3068 5.65448 11.6589 5.71519 11.9879 5.84492C12.317 5.97466 12.6158 6.17065 12.8658 6.42072C13.1159 6.6708 13.3119 6.96961 13.4416 7.29862C13.5714 7.62762 13.6321 7.97978 13.62 8.33323C13.6323 8.68674 13.5717 9.03899 13.442 9.36808C13.3124 9.69717 13.1164 9.99607 12.8663 10.2462C12.6162 10.4963 12.3173 10.6923 11.9882 10.8219C11.6591 10.9516 11.3068 11.0122 10.9533 10.9999ZM22 9.66657H16.6667V6.9999H22V9.66657Z" fill="#A0A2A7"/>
</svg>
