<svg width="14" height="18" viewBox="0 0 14 18" fill="none" xmlns="http://www.w3.org/2000/svg">
<path d="M7.00004 9.00002C6.08337 9.00002 5.33337 8.25002 5.33337 7.33335C5.33337 6.41669 6.08337 5.66669 7.00004 5.66669C7.91671 5.66669 8.66671 6.41669 8.66671 7.33335C8.66671 8.25002 7.91671 9.00002 7.00004 9.00002ZM12 7.50002C12 4.47502 9.79171 2.33335 7.00004 2.33335C4.20837 2.33335 2.00004 4.47502 2.00004 7.50002C2.00004 9.45002 3.62504 12.0334 7.00004 15.1167C10.375 12.0334 12 9.45002 12 7.50002ZM7.00004 0.666687C10.5 0.666687 13.6667 3.35002 13.6667 7.50002C13.6667 10.2667 11.4417 13.5417 7.00004 17.3334C2.55837 13.5417 0.333374 10.2667 0.333374 7.50002C0.333374 3.35002 3.50004 0.666687 7.00004 0.666687Z" fill="#A0A2A7"/>
</svg>
