<svg width="18" height="17" viewBox="0 0 18 17" fill="none" xmlns="http://www.w3.org/2000/svg">
<path d="M14.8333 4.83325H3.16667C2.24619 4.83325 1.5 5.57944 1.5 6.49992V13.9999C1.5 14.9204 2.24619 15.6666 3.16667 15.6666H14.8333C15.7538 15.6666 16.5 14.9204 16.5 13.9999V6.49992C16.5 5.57944 15.7538 4.83325 14.8333 4.83325Z" stroke="#A0A2A7" stroke-width="2" stroke-linecap="round" stroke-linejoin="round"/>
<path d="M1.5 9.83333C3.82632 11.0056 6.39502 11.6162 9 11.6162C11.605 11.6162 14.1737 11.0056 16.5 9.83333M5.66667 4.83333V3.16667C5.66667 2.72464 5.84226 2.30072 6.15482 1.98816C6.46738 1.67559 6.89131 1.5 7.33333 1.5H10.6667C11.1087 1.5 11.5326 1.67559 11.8452 1.98816C12.1577 2.30072 12.3333 2.72464 12.3333 3.16667V4.83333H5.66667ZM9 9V9.00833V9Z" stroke="#A0A2A7" stroke-width="2" stroke-linecap="round" stroke-linejoin="round"/>
</svg>
